<svg width="12" height="23" viewBox="0 0 12 23" fill="none" xmlns="http://www.w3.org/2000/svg">
<path fill-rule="evenodd" clip-rule="evenodd" d="M2.6 11.5958V22.7125C2.6 22.9042 2.7 23 2.9 23H7.5C7.7 23 7.8 22.9042 7.8 22.7125V11.4042H11.2C11.4 11.4042 11.5 11.3083 11.5 11.1167L11.8 7.66667C11.8 7.475 11.7 7.37917 11.5 7.37917H7.8V4.98333C7.8 4.40833 8.3 3.92917 9 3.92917H11.6C11.9 3.92917 12 3.83333 12 3.64167V0.2875C12 0.0958335 11.9 0 11.7 0H7.3C4.7 0 2.6 1.82083 2.6 4.12083V7.37917H0.3C0.1 7.37917 0 7.475 0 7.66667V11.1167C0 11.3083 0.1 11.4042 0.3 11.4042H2.6V11.5958Z" fill="white"/>
</svg>
