<svg width="36" height="23" viewBox="0 0 36 23" fill="none" xmlns="http://www.w3.org/2000/svg">
<path d="M9.28072 8.92712C6.82604 8.92712 4.84155 10.9116 4.84155 13.3594C4.84155 15.8071 6.82604 17.7916 9.27381 17.7916C11.7216 17.7916 13.7061 15.8071 13.7061 13.3594C13.713 10.9116 11.7285 8.92712 9.28072 8.92712ZM9.28072 16.5332C7.53133 16.5332 6.10692 15.1157 6.10692 13.3594C6.10692 11.6031 7.52441 10.1856 9.28072 10.1856C11.037 10.1856 12.4476 11.61 12.4476 13.3594C12.4476 15.1088 11.0301 16.5332 9.28072 16.5332Z" fill="white"/>
<path d="M9.29438 15.5582C10.5126 15.5582 11.5001 14.5707 11.5001 13.3525C11.5001 12.1343 10.5126 11.1467 9.29438 11.1467C8.07617 11.1467 7.08862 12.1343 7.08862 13.3525C7.08862 14.5707 8.07617 15.5582 9.29438 15.5582Z" fill="white"/>
<path d="M26.9821 8.92712C24.5343 8.92712 22.5498 10.9116 22.5498 13.3594C22.5498 15.8071 24.5343 17.7916 26.9821 17.7916C29.4298 17.7916 31.4143 15.8071 31.4143 13.3594C31.4143 10.9116 29.4298 8.92712 26.9821 8.92712ZM26.9821 16.5332C25.2327 16.5332 23.8083 15.1157 23.8083 13.3594C23.8083 11.6031 25.2258 10.1856 26.9821 10.1856C28.7384 10.1856 30.1489 11.61 30.1489 13.3594C30.1489 15.1088 28.7314 16.5332 26.9821 16.5332Z" fill="white"/>
<path d="M26.9955 15.5582C28.2138 15.5582 29.2013 14.5707 29.2013 13.3525C29.2013 12.1343 28.2138 11.1467 26.9955 11.1467C25.7773 11.1467 24.7898 12.1343 24.7898 13.3525C24.7898 14.5707 25.7773 15.5582 26.9955 15.5582Z" fill="white"/>
<path d="M33.2188 7.08094L35.8256 4.49488H30.5429C27.5834 2.08861 22.6672 0.083374 18.1105 0.083374C13.5468 0.083374 8.67204 2.08861 5.71259 4.49488H0.416016L3.02282 7.08094C1.41172 8.68513 0.416016 10.9047 0.416016 13.3594C0.416016 18.2549 4.38499 22.2239 9.28052 22.2239C11.5278 22.2239 13.5814 21.3872 15.1441 20.0043L18.145 22.2101L21.1114 20.0527L21.0768 19.9697C22.6464 21.3665 24.707 22.217 26.975 22.217C31.8705 22.217 35.8395 18.248 35.8395 13.3525C35.8326 10.9047 34.8299 8.68513 33.2188 7.08094ZM25.8617 4.56403C21.6646 5.08954 18.3732 8.54683 18.1243 12.827C17.8684 8.53992 14.5702 5.07571 10.3592 4.56403C12.4751 3.04282 15.1718 2.29604 18.1105 2.29604C21.0492 2.29604 23.7458 3.04282 25.8617 4.56403ZM9.28052 20.0112C5.60196 20.0112 2.62868 17.031 2.62868 13.3594C2.62868 9.68774 5.60887 6.70755 9.28052 6.70755C12.9522 6.70755 15.9324 9.68774 15.9324 13.3594C15.9254 17.031 12.9522 20.0112 9.28052 20.0112ZM26.9819 20.0112C23.3102 20.0112 20.33 17.031 20.33 13.3594C20.33 9.68774 23.3102 6.70755 26.9819 6.70755C30.6535 6.70755 33.6337 9.68774 33.6337 13.3594C33.6268 17.031 30.6535 20.0112 26.9819 20.0112Z" fill="white"/>
</svg>
