<svg width="23" height="23" viewBox="0 0 23 23" fill="none" xmlns="http://www.w3.org/2000/svg">
<path fill-rule="evenodd" clip-rule="evenodd" d="M6.7501 0.141138C4.87804 0.225605 3.25544 0.6833 1.94522 1.98798C0.630424 3.29952 0.178413 4.92854 0.0937347 6.78113C0.0410969 7.93743 -0.266701 16.673 0.625848 18.9639C1.22775 20.5094 2.41321 21.6978 3.97288 22.3016C4.70065 22.5847 5.53143 22.7763 6.7501 22.8322C16.94 23.2934 20.7173 23.0423 22.3102 18.9639C22.5928 18.2379 22.7874 17.4079 22.8412 16.1922C23.3069 5.97619 22.7657 3.7618 20.9897 1.98798C19.5811 0.582848 17.9241 -0.373658 6.7501 0.141138ZM6.84391 20.7776C5.72823 20.7274 5.1229 20.5415 4.71897 20.3851C3.70284 19.9902 2.93959 19.2301 2.5471 18.2199C1.86739 16.4792 2.09283 8.21157 2.15347 6.87378C2.21298 5.56338 2.47845 4.36577 3.40304 3.4412C4.54733 2.29974 6.02575 1.74032 16.0921 2.19462C17.4058 2.25397 18.6061 2.5189 19.533 3.4412C20.6773 4.58265 21.2449 6.07244 20.7826 16.1001C20.7322 17.2131 20.5457 17.8169 20.389 18.2199C19.3534 20.8738 16.9709 21.2422 6.84391 20.7776ZM16.2031 5.39305C16.2031 6.1487 16.8176 6.76316 17.5763 6.76316C18.3349 6.76316 18.9506 6.1487 18.9506 5.39305C18.9506 4.63741 18.3349 4.0235 17.5763 4.0235C16.8176 4.0235 16.2031 4.63741 16.2031 5.39305ZM5.59207 11.4861C5.59207 14.7233 8.22281 17.3478 11.468 17.3478C14.7132 17.3478 17.344 14.7233 17.344 11.4861C17.344 8.24895 14.7132 5.62608 11.468 5.62608C8.22281 5.62608 5.59207 8.24895 5.59207 11.4861ZM7.65409 11.4861C7.65409 9.38585 9.36138 7.68181 11.468 7.68181C13.5747 7.68181 15.282 9.38585 15.282 11.4861C15.282 13.5875 13.5747 15.2921 11.468 15.2921C9.36138 15.2921 7.65409 13.5875 7.65409 11.4861Z" fill="white"/>
</svg>
