<svg width="24" height="23" viewBox="0 0 24 23" fill="none" xmlns="http://www.w3.org/2000/svg">
<path d="M21.7964 0.083374H2.6558C2.1725 0.0839219 1.70915 0.276154 1.36741 0.617897C1.02567 0.959641 0.833434 1.42299 0.832886 1.90628V21.0468C0.833438 21.5301 1.02567 21.9935 1.36741 22.3352C1.70916 22.677 2.1725 22.8692 2.6558 22.8698H21.7964C22.2796 22.8692 22.743 22.677 23.0847 22.3352C23.4265 21.9935 23.6187 21.5301 23.6193 21.0468V1.90628C23.6187 1.42299 23.4265 0.959641 23.0847 0.617897C22.743 0.276154 22.2796 0.0839219 21.7964 0.083374ZM8.58025 16.9454C8.58025 17.1871 8.48423 17.419 8.31329 17.5899C8.14236 17.7608 7.91053 17.8569 7.6688 17.8569C7.42707 17.8569 7.19523 17.7608 7.0243 17.5899C6.85337 17.419 6.75734 17.1871 6.75734 16.9454V9.65377C6.75734 9.41203 6.85337 9.1802 7.0243 9.00927C7.19523 8.83834 7.42707 8.74231 7.6688 8.74231C7.91053 8.74231 8.14236 8.83834 8.31329 9.00927C8.48423 9.1802 8.58025 9.41203 8.58025 9.65377V16.9454ZM7.6688 7.37501C7.3984 7.37501 7.13407 7.29483 6.90923 7.1446C6.6844 6.99438 6.50917 6.78085 6.40569 6.53103C6.30221 6.28121 6.27513 6.00632 6.32789 5.74111C6.38064 5.4759 6.51085 5.23229 6.70205 5.04109C6.89326 4.84988 7.13687 4.71967 7.40207 4.66692C7.66728 4.61417 7.94218 4.64124 8.192 4.74472C8.44182 4.8482 8.65534 5.02343 8.80557 5.24827C8.9558 5.4731 9.03598 5.73743 9.03598 6.00783C9.03598 6.37043 8.89194 6.71818 8.63554 6.97458C8.37915 7.23097 8.0314 7.37501 7.6688 7.37501ZM18.6063 16.9454C18.6063 17.1871 18.5102 17.419 18.3393 17.5899C18.1684 17.7608 17.9365 17.8569 17.6948 17.8569C17.4531 17.8569 17.2212 17.7608 17.0503 17.5899C16.8794 17.419 16.7833 17.1871 16.7833 16.9454V12.8439C16.7833 12.2395 16.5433 11.6599 16.116 11.2326C15.6886 10.8053 15.109 10.5652 14.5047 10.5652C13.9004 10.5652 13.3208 10.8053 12.8935 11.2326C12.4661 11.6599 12.2261 12.2395 12.2261 12.8439V16.9454C12.2261 17.1871 12.13 17.419 11.9591 17.5899C11.7882 17.7608 11.5564 17.8569 11.3146 17.8569C11.0729 17.8569 10.8411 17.7608 10.6701 17.5899C10.4992 17.419 10.4032 17.1871 10.4032 16.9454V9.65377C10.4031 9.42972 10.4856 9.21349 10.6348 9.04641C10.7841 8.87933 10.9897 8.7731 11.2124 8.74803C11.435 8.72296 11.6591 8.7808 11.8418 8.9105C12.0245 9.04021 12.153 9.23267 12.2027 9.45113C12.8191 9.03224 13.538 8.78932 14.2822 8.74847C15.0263 8.70763 15.7675 8.87041 16.4261 9.21932C17.0846 9.56823 17.6356 10.0901 18.0197 10.7287C18.4039 11.3673 18.6066 12.0986 18.6063 12.8439V16.9454Z" fill="white"/>
</svg>
