<svg width="100" height="78" viewBox="0 0 100 78" fill="none" xmlns="http://www.w3.org/2000/svg">
<path d="M8.96 44.352C8.848 44.8373 8.86667 45.276 9.016 45.668C9.16533 46.0413 9.38 46.3587 9.66 46.62C9.95867 46.8813 10.304 47.0773 10.696 47.208C11.088 47.3387 11.48 47.404 11.872 47.404C12.3573 47.404 12.796 47.3013 13.188 47.096C13.5987 46.872 13.8693 46.536 14 46.088C14.168 45.584 14.2053 45.1547 14.112 44.8C14.0373 44.4453 13.8787 44.1373 13.636 43.876C13.412 43.596 13.1227 43.3533 12.768 43.148C12.432 42.9427 12.0867 42.7373 11.732 42.532C11.3773 42.308 11.0413 42.0747 10.724 41.832C10.4253 41.5707 10.192 41.272 10.024 40.936C9.87467 40.6747 9.79067 40.4133 9.772 40.152C9.772 39.8907 9.8 39.6293 9.856 39.368C9.93067 39.0693 10.0427 38.78 10.192 38.5C10.3413 38.2013 10.5 37.94 10.668 37.716C10.8547 37.492 11.0507 37.3147 11.256 37.184C11.48 37.0533 11.704 36.9973 11.928 37.016C12.1893 37.0347 12.3573 37.1 12.432 37.212C12.5067 37.3053 12.5253 37.4267 12.488 37.576C12.4507 37.7253 12.3667 37.884 12.236 38.052C12.124 38.2013 12.0027 38.3413 11.872 38.472C11.648 38.64 11.424 38.8453 11.2 39.088C10.976 39.312 10.92 39.6107 11.032 39.984C11.0693 40.152 11.1533 40.292 11.284 40.404C11.4147 40.516 11.564 40.6093 11.732 40.684C11.9 40.7587 12.0587 40.824 12.208 40.88C12.376 40.936 12.5067 40.992 12.6 41.048C12.9547 41.2347 13.2813 41.44 13.58 41.664C13.8973 41.8693 14.168 42.1213 14.392 42.42C14.6347 42.7 14.8213 43.0453 14.952 43.456C15.0827 43.848 15.1387 44.3147 15.12 44.856C15.1573 45.5093 15.0733 46.1067 14.868 46.648C14.6627 47.1707 14.3173 47.656 13.832 48.104C13.5333 48.4027 13.1693 48.6267 12.74 48.776C12.3293 48.9067 11.9 48.972 11.452 48.972C10.724 48.972 10.024 48.8133 9.352 48.496C9.352 48.9627 9.352 49.42 9.352 49.868C9.352 50.316 9.352 50.8107 9.352 51.352C9.352 51.8933 9.34267 52.4907 9.324 53.144C9.324 53.816 9.324 54.6 9.324 55.496C9.34267 56.4107 9.352 57.456 9.352 58.632C9.37067 59.8267 9.38933 61.208 9.408 62.776C9.42667 64.7173 9.45467 66.556 9.492 68.292C9.52933 70.028 9.48267 71.5493 9.352 72.856C9.24 74.1813 9.00667 75.236 8.652 76.02C8.29733 76.804 7.74667 77.2053 7 77.224C6.51467 77.2613 6.12267 77 5.824 76.44C5.52533 75.88 5.292 75.1147 5.124 74.144C4.97467 73.192 4.872 72.0813 4.816 70.812C4.77867 69.5613 4.76 68.2453 4.76 66.864C4.77867 65.5013 4.79733 64.1293 4.816 62.748C4.85333 61.3853 4.872 60.1067 4.872 58.912C4.872 58.4267 4.872 57.8387 4.872 57.148C4.89067 56.476 4.89067 55.7573 4.872 54.992C4.85333 54.2267 4.816 53.4427 4.76 52.64C4.72267 51.856 4.648 51.1187 4.536 50.428C4.44267 49.7373 4.30267 49.1213 4.116 48.58C3.948 48.0387 3.73333 47.6373 3.472 47.376C3.34133 47.2453 3.20133 47.18 3.052 47.18C2.90267 47.18 2.75333 47.236 2.604 47.348C2.47333 47.46 2.33333 47.5813 2.184 47.712C2.05333 47.8427 1.92267 47.964 1.792 48.076C1.66133 48.188 1.53067 48.244 1.4 48.244C1.30667 48.244 1.21333 48.1973 1.12 48.104C1.10133 48.0853 1.07333 48.02 1.036 47.908C0.998667 47.7773 0.989333 47.6187 1.008 47.432C1.04533 47.2453 1.12 47.0493 1.232 46.844C1.344 46.6387 1.54933 46.4427 1.848 46.256C2.27733 45.9947 2.64133 45.5933 2.94 45.052C3.23867 44.492 3.42533 43.9133 3.5 43.316C3.59333 42.7187 3.54667 42.1493 3.36 41.608C3.192 41.0667 2.856 40.6747 2.352 40.432C1.94133 40.3573 1.61467 40.376 1.372 40.488C1.12933 40.6 0.933333 40.6747 0.784 40.712C0.746667 40.6 0.737333 40.4507 0.756 40.264C0.793333 40.0587 0.858667 39.872 0.952 39.704C1.04533 39.5173 1.18533 39.3587 1.372 39.228C1.55867 39.0973 1.80133 39.032 2.1 39.032C2.436 39.032 2.81867 39.1253 3.248 39.312C3.82667 39.6293 4.20933 40.0587 4.396 40.6C4.60133 41.1413 4.69467 41.7107 4.676 42.308C4.65733 42.9053 4.58267 43.5027 4.452 44.1C4.32133 44.6787 4.21867 45.1733 4.144 45.584C4.10667 45.7147 4.10667 45.8267 4.144 45.92C4.18133 45.9947 4.23733 46.0787 4.312 46.172C4.40533 46.2467 4.51733 46.3587 4.648 46.508C4.79733 46.6387 4.96533 46.8347 5.152 47.096C5.41333 47.432 5.60933 47.9173 5.74 48.552C5.87067 49.1867 5.964 49.9147 6.02 50.736C6.076 51.5573 6.09467 52.4347 6.076 53.368C6.076 54.32 6.06667 55.272 6.048 56.224C6.01067 57.4747 5.98267 58.8187 5.964 60.256C5.964 61.6933 5.97333 63.1307 5.992 64.568C6.02933 66.0053 6.06667 67.3867 6.104 68.712C6.16 70.0373 6.23467 71.2133 6.328 72.24C6.42133 73.2667 6.53333 74.0787 6.664 74.676C6.79467 75.292 6.944 75.6 7.112 75.6C7.46667 75.5813 7.74667 75.3387 7.952 74.872C8.15733 74.4053 8.316 73.7987 8.428 73.052C8.54 72.3053 8.60533 71.4653 8.624 70.532C8.66133 69.6173 8.68 68.6933 8.68 67.76C8.68 66.8267 8.67067 65.94 8.652 65.1C8.652 64.26 8.66133 63.56 8.68 63C8.68 61.712 8.67067 60.396 8.652 59.052C8.652 57.7267 8.64267 56.4107 8.624 55.104C8.60533 53.816 8.58667 52.5653 8.568 51.352C8.568 50.1573 8.568 49.0373 8.568 47.992C8.232 47.712 8.008 47.376 7.896 46.984C7.784 46.704 7.70933 46.3867 7.672 46.032C7.65333 45.6773 7.68133 45.3413 7.756 45.024C7.84933 44.688 7.98933 44.3987 8.176 44.156C8.38133 43.9133 8.66133 43.7733 9.016 43.736C9.10933 43.7173 9.156 43.736 9.156 43.792C9.17467 43.848 9.16533 43.9133 9.128 43.988C9.10933 44.0627 9.08133 44.1373 9.044 44.212C9.00667 44.2867 8.97867 44.3333 8.96 44.352ZM40.2738 3.416C40.2178 3.472 40.2552 3.444 40.3858 3.332C40.5165 3.22 40.7032 3.07066 40.9458 2.884C41.1885 2.69733 41.4685 2.48266 41.7858 2.24C42.1218 1.99733 42.4485 1.77333 42.7658 1.568C43.0832 1.36266 43.3818 1.19466 43.6618 1.064C43.9418 0.914665 44.1565 0.839999 44.3058 0.839999C44.4552 0.839999 44.5298 0.895998 44.5298 1.008C44.6045 2.22133 44.3898 3.556 43.8858 5.012C43.4005 6.44933 42.6445 7.99866 41.6178 9.66C40.6098 11.3027 39.3592 13.0387 37.8658 14.868C36.3725 16.6973 34.6552 18.6107 32.7138 20.608C31.5752 21.7653 30.4085 22.904 29.2138 24.024C28.0192 25.144 26.8525 26.292 25.7138 27.468C24.5752 28.644 23.5018 29.876 22.4938 31.164C21.5045 32.452 20.6365 33.8427 19.8898 35.336C19.5912 35.9147 19.3298 36.568 19.1058 37.296C18.9005 38.024 18.7325 38.7147 18.6018 39.368C18.4898 40.0213 18.3965 40.5813 18.3218 41.048C18.2658 41.5147 18.2285 41.776 18.2098 41.832C18.7512 40.936 19.3392 40.2733 19.9738 39.844C20.6085 39.4147 21.2432 39.2 21.8778 39.2C22.3072 39.2 22.7085 39.2933 23.0818 39.48C23.5112 39.648 23.8378 39.872 24.0618 40.152C24.2858 40.4133 24.5378 40.7307 24.8178 41.104C25.1912 40.6373 25.6205 40.208 26.1058 39.816C26.6098 39.424 27.1792 39.228 27.8138 39.228C28.3365 39.228 28.8312 39.3867 29.2978 39.704C30.0072 40.208 30.5205 40.88 30.8378 41.72C31.1738 42.56 31.2392 43.624 31.0338 44.912C30.9405 45.4907 30.7632 45.9947 30.5018 46.424C30.2405 46.8533 29.9418 47.2267 29.6058 47.544C29.2698 47.8427 28.9152 48.0947 28.5418 48.3C28.1685 48.4867 27.8232 48.6453 27.5058 48.776C27.2258 48.888 27.0205 48.944 26.8898 48.944C26.5538 48.944 26.6845 48.6827 27.2818 48.16C27.3938 48.0853 27.6178 47.908 27.9538 47.628C28.2898 47.3293 28.6072 46.928 28.9058 46.424C29.2232 45.9013 29.4472 45.276 29.5778 44.548C29.7272 43.82 29.6525 42.9893 29.3538 42.056C29.1858 41.5147 28.9338 41.132 28.5978 40.908C28.2618 40.684 27.9072 40.572 27.5338 40.572C27.2538 40.572 26.9738 40.628 26.6938 40.74C26.4325 40.8333 26.1898 40.9733 25.9658 41.16C25.7605 41.3467 25.5925 41.552 25.4618 41.776C25.3498 42 25.3032 42.2427 25.3218 42.504C25.4338 43.288 25.3592 43.8853 25.0978 44.296C24.8365 44.688 24.5378 44.8 24.2018 44.632C23.9778 44.52 23.8005 44.3427 23.6698 44.1C23.5392 43.8573 23.5485 43.4 23.6978 42.728C23.7165 42.5413 23.6885 42.3267 23.6138 42.084C23.5392 41.8413 23.4365 41.608 23.3058 41.384C23.1752 41.16 23.0165 40.964 22.8298 40.796C22.6618 40.628 22.4845 40.5253 22.2978 40.488C21.9992 40.4133 21.6632 40.4413 21.2898 40.572C20.9352 40.684 20.5992 40.8707 20.2818 41.132C19.9832 41.3747 19.7312 41.664 19.5258 42C19.3392 42.336 19.2552 42.6907 19.2738 43.064C19.2925 43.4747 19.3672 43.848 19.4978 44.184C19.6472 44.52 19.8058 44.8373 19.9738 45.136C20.1418 45.4347 20.3005 45.7147 20.4498 45.976C20.5992 46.2373 20.6925 46.4987 20.7298 46.76C20.8792 47.3573 20.8792 47.908 20.7298 48.412C20.5992 48.916 20.2258 49.3547 19.6098 49.728C19.4792 49.8027 19.3485 49.84 19.2178 49.84C19.0312 49.84 18.9098 49.7747 18.8538 49.644C18.8165 49.5133 18.9005 49.4107 19.1058 49.336C19.3298 49.2053 19.4698 49.028 19.5258 48.804C19.5818 48.5613 19.5818 48.3 19.5258 48.02C19.4698 47.74 19.3672 47.4507 19.2178 47.152C19.0685 46.8347 18.9005 46.536 18.7138 46.256C18.0418 45.36 17.5752 44.4547 17.3138 43.54C17.0712 42.6067 16.9685 41.6827 17.0058 40.768C17.0432 39.8347 17.2018 38.9107 17.4818 37.996C17.7805 37.0813 18.1352 36.176 18.5458 35.28C19.0312 34.2347 19.7312 33.1147 20.6458 31.92C21.5605 30.7253 22.5965 29.4933 23.7538 28.224C24.9298 26.936 26.1805 25.62 27.5058 24.276C28.8498 22.932 30.1845 21.5787 31.5098 20.216C32.8538 18.8533 34.1512 17.5 35.4018 16.156C36.6525 14.812 37.7725 13.496 38.7618 12.208C39.7512 10.92 40.5725 9.67867 41.2258 8.484C41.8978 7.27066 42.3085 6.12266 42.4578 5.04C42.4952 4.76 42.5232 4.508 42.5418 4.284C42.5605 4.04133 42.5512 3.82666 42.5138 3.64C42.4952 3.45333 42.4298 3.31333 42.3178 3.22C42.2058 3.108 42.0285 3.052 41.7858 3.052C41.4498 3.052 40.9458 3.17333 40.2738 3.416ZM34.508 41.104C35.0494 40.5813 35.7027 40.124 36.468 39.732C37.2334 39.3213 37.9894 39.116 38.736 39.116C39.24 39.116 39.7067 39.2373 40.136 39.48C40.5654 39.7227 40.9294 40.1333 41.228 40.712C41.4147 41.0853 41.508 41.552 41.508 42.112C41.508 42.6533 41.4334 43.232 41.284 43.848C41.1534 44.464 40.9574 45.08 40.696 45.696C40.4347 46.2933 40.1267 46.8347 39.772 47.32C39.4174 47.8053 39.0254 48.2067 38.596 48.524C38.1854 48.8227 37.7467 48.972 37.28 48.972C36.9627 48.972 36.636 48.888 36.3 48.72C35.852 48.496 35.4694 48.1787 35.152 47.768C34.8347 47.3573 34.564 46.9187 34.34 46.452C34.1347 45.9667 33.9667 45.4907 33.836 45.024C33.724 44.5387 33.6307 44.128 33.556 43.792C33.276 42.4667 33.22 41.1133 33.388 39.732C33.5747 38.332 33.9574 37.0253 34.536 35.812C35.1147 34.5987 35.8707 33.544 36.804 32.648C37.7374 31.7333 38.82 31.0987 40.052 30.744C40.8174 30.5013 41.564 30.352 42.292 30.296C43.0387 30.24 43.7574 30.212 44.448 30.212C45.232 30.212 45.96 30.2213 46.632 30.24C47.3227 30.24 47.9667 30.1653 48.564 30.016C49.46 29.792 50.1507 29.5213 50.636 29.204C51.14 28.8867 51.4947 28.448 51.7 27.888C51.7934 27.6267 51.8307 27.3747 51.812 27.132C51.812 26.8707 51.7934 26.656 51.756 26.488C51.7374 26.3013 51.728 26.18 51.728 26.124C51.7467 26.068 51.8307 26.1147 51.98 26.264C52.1854 26.4693 52.316 26.7307 52.372 27.048C52.428 27.3653 52.428 27.692 52.372 28.028C52.316 28.364 52.2134 28.6907 52.064 29.008C51.9147 29.3253 51.7374 29.5867 51.532 29.792C51.028 30.2773 50.4494 30.66 49.796 30.94C49.1614 31.2013 48.4894 31.4067 47.78 31.556C47.0707 31.7053 46.3427 31.808 45.596 31.864C44.868 31.9013 44.1494 31.9387 43.44 31.976C42.7494 32.0133 42.096 32.06 41.48 32.116C40.8827 32.172 40.3507 32.2747 39.884 32.424C39.044 32.7227 38.2974 33.1707 37.644 33.768C36.9907 34.3653 36.4307 35.056 35.964 35.84C35.516 36.624 35.1707 37.4733 34.928 38.388C34.6854 39.284 34.5454 40.1893 34.508 41.104ZM36.244 46.816C36.58 47.208 36.9534 47.404 37.364 47.404C37.644 47.404 37.9054 47.32 38.148 47.152C38.4094 46.9653 38.6427 46.7413 38.848 46.48C39.072 46.2187 39.268 45.9387 39.436 45.64C39.604 45.3413 39.7347 45.08 39.828 44.856C39.9587 44.5573 40.0614 44.2493 40.136 43.932C40.2107 43.6147 40.248 43.3067 40.248 43.008C40.2667 42.7093 40.2387 42.4293 40.164 42.168C40.0894 41.9067 39.9587 41.6827 39.772 41.496C39.4547 41.1973 39.128 40.992 38.792 40.88C38.456 40.7493 38.1107 40.684 37.756 40.684C37.1027 40.684 36.4867 40.8427 35.908 41.16C35.3294 41.4773 34.8627 41.8507 34.508 42.28C34.564 43.176 34.732 44.016 35.012 44.8C35.292 45.584 35.7027 46.256 36.244 46.816ZM63.294 33.936C63.2753 34.1413 63.1913 34.272 63.042 34.328C62.8927 34.384 62.7153 34.44 62.51 34.496C62.3047 34.552 62.0993 34.6453 61.894 34.776C61.6887 34.888 61.5207 35.112 61.39 35.448C61.2593 35.8027 61.2127 36.148 61.25 36.484C61.2873 36.82 61.3807 37.156 61.53 37.492C61.6793 37.8093 61.8753 38.1453 62.118 38.5C62.3793 38.836 62.6593 39.2 62.958 39.592C63.3873 39.9653 63.7233 40.5253 63.966 41.272C64.2273 42 64.3393 43.008 64.302 44.296C64.302 45.0053 64.1713 45.6493 63.91 46.228C63.6673 46.788 63.2753 47.376 62.734 47.992C62.3047 48.3467 61.8567 48.6267 61.39 48.832C60.9233 49.0373 60.4567 49.14 59.99 49.14C59.43 49.14 58.898 48.972 58.394 48.636C57.89 48.3 57.4513 47.7493 57.078 46.984C56.854 46.5173 56.7047 46.0507 56.63 45.584C56.5553 45.1173 56.5273 44.6133 56.546 44.072C56.5647 43.5307 56.602 42.9333 56.658 42.28C56.714 41.6267 56.7607 40.88 56.798 40.04C56.8727 38.6213 56.966 37.1093 57.078 35.504C57.19 33.8987 57.2927 32.34 57.386 30.828C57.498 29.2973 57.5913 27.888 57.666 26.6C57.7593 25.2933 57.8247 24.248 57.862 23.464C57.918 22.456 57.9553 21.4947 57.974 20.58C58.0113 19.6653 58.0487 18.76 58.086 17.864C57.4887 18.368 56.9007 18.7787 56.322 19.096C55.7433 19.4133 55.174 19.656 54.614 19.824C53.7553 20.3653 53.074 21.028 52.57 21.812C52.066 22.5773 51.6927 23.436 51.45 24.388C51.2073 25.3213 51.0767 26.3293 51.058 27.412C51.0393 28.476 51.0767 29.5773 51.17 30.716C51.2633 31.8547 51.394 33.012 51.562 34.188C51.73 35.3453 51.8887 36.4933 52.038 37.632C52.1873 38.752 52.29 39.844 52.346 40.908C52.4207 41.972 52.4113 42.9707 52.318 43.904C52.374 44.3707 52.374 44.8747 52.318 45.416C52.2807 45.8453 52.1687 46.2653 51.982 46.676C51.814 47.0867 51.5993 47.4507 51.338 47.768C51.0767 48.0853 50.7687 48.3467 50.414 48.552C50.078 48.7387 49.7233 48.832 49.35 48.832C49.1447 48.8133 49.0327 48.7853 49.014 48.748C48.9953 48.7107 49.014 48.664 49.07 48.608C49.1447 48.5333 49.2473 48.4493 49.378 48.356C49.5087 48.244 49.63 48.1227 49.742 47.992C50.1153 47.5627 50.414 47.0493 50.638 46.452C50.862 45.836 50.974 45.2013 50.974 44.548C50.9927 43.8947 50.8807 43.2507 50.638 42.616C50.3953 41.9813 49.9847 41.44 49.406 40.992C48.9953 40.7307 48.5753 40.6 48.146 40.6C47.4367 40.6 46.7367 40.9173 46.046 41.552C45.8033 41.7947 45.598 42.112 45.43 42.504C45.2807 42.8773 45.178 43.2787 45.122 43.708C45.066 44.1373 45.0567 44.576 45.094 45.024C45.1313 45.4533 45.2247 45.836 45.374 46.172C45.5233 46.508 45.7287 46.7693 45.99 46.956C46.27 47.1427 46.606 47.208 46.998 47.152C47.2593 47.1147 47.3993 47.18 47.418 47.348C47.4367 47.516 47.3807 47.712 47.25 47.936C47.1193 48.16 46.9327 48.3653 46.69 48.552C46.4473 48.7387 46.186 48.832 45.906 48.832C45.7007 48.832 45.4953 48.776 45.29 48.664C45.1033 48.552 44.926 48.3467 44.758 48.048C44.5527 47.7493 44.366 47.376 44.198 46.928C44.03 46.4613 43.8993 45.9573 43.806 45.416C43.7313 44.8747 43.7127 44.324 43.75 43.764C43.806 43.1853 43.9553 42.6347 44.198 42.112C44.646 41.1413 45.2247 40.4227 45.934 39.956C46.6433 39.4893 47.3713 39.256 48.118 39.256C48.7527 39.256 49.322 39.396 49.826 39.676C50.3487 39.956 50.806 40.3387 51.198 40.824C51.086 39.7413 50.9273 38.556 50.722 37.268C50.5353 35.98 50.358 34.6733 50.19 33.348C50.0407 32.004 49.938 30.6693 49.882 29.344C49.826 28.0187 49.882 26.7773 50.05 25.62C50.218 24.444 50.526 23.38 50.974 22.428C51.422 21.476 52.0753 20.7013 52.934 20.104C52.0007 20.1413 51.1233 19.992 50.302 19.656C49.4807 19.32 48.7247 18.8627 48.034 18.284C47.362 17.6867 46.774 16.996 46.27 16.212C45.766 15.428 45.3647 14.6067 45.066 13.748C44.786 12.8893 44.618 12.0307 44.562 11.172C44.5247 10.3133 44.6273 9.50133 44.87 8.736C45.542 6.608 46.634 5.00266 48.146 3.92C49.6767 2.81866 51.534 2.16533 53.718 1.96C54.838 1.88533 55.7713 2.1 56.518 2.604C57.2833 3.08933 57.8993 3.836 58.366 4.844C58.8327 5.852 59.1593 7.10266 59.346 8.596C59.5513 10.0893 59.654 11.7973 59.654 13.72C59.654 15.9227 59.5793 18.1627 59.43 20.44C59.2993 22.6987 59.15 24.9573 58.982 27.216C58.814 29.4747 58.646 31.7147 58.478 33.936C58.31 36.1387 58.198 38.2853 58.142 40.376C58.534 40.04 58.982 39.7507 59.486 39.508C59.99 39.2467 60.494 39.088 60.998 39.032C60.7367 38.64 60.522 38.1733 60.354 37.632C60.186 37.0907 60.1207 36.5493 60.158 36.008C60.1767 35.5413 60.27 35.1307 60.438 34.776C60.606 34.4027 60.8113 34.0853 61.054 33.824C61.2967 33.5627 61.5487 33.3667 61.81 33.236C62.09 33.0867 62.342 33.012 62.566 33.012C62.79 33.012 62.9767 33.0867 63.126 33.236C63.2753 33.3853 63.3313 33.6187 63.294 33.936ZM50.19 4.088C49.518 4.424 48.9207 4.85333 48.398 5.376C47.8753 5.88 47.4367 6.44 47.082 7.056C46.7273 7.672 46.4567 8.316 46.27 8.988C46.0833 9.64133 45.99 10.2853 45.99 10.92C45.99 12.096 46.1953 13.188 46.606 14.196C47.0353 15.1853 47.5953 16.0533 48.286 16.8C48.9767 17.528 49.7513 18.0973 50.61 18.508C51.4687 18.9187 52.346 19.124 53.242 19.124C54.1753 19.124 55.0713 18.8813 55.93 18.396C56.7887 17.892 57.526 17.08 58.142 15.96C58.142 14 58.0673 12.236 57.918 10.668C57.7687 9.1 57.5073 7.76533 57.134 6.664C56.7793 5.544 56.294 4.68533 55.678 4.088C55.0807 3.49067 54.3153 3.192 53.382 3.192C52.4487 3.192 51.3847 3.49067 50.19 4.088ZM58.142 44.072C58.142 45.024 58.3287 45.808 58.702 46.424C59.0753 47.0213 59.6073 47.32 60.298 47.32C60.5407 47.32 60.774 47.2827 60.998 47.208C61.4647 47.0773 61.8473 46.8253 62.146 46.452C62.4447 46.06 62.65 45.6213 62.762 45.136C62.8927 44.632 62.93 44.1187 62.874 43.596C62.8367 43.0547 62.706 42.56 62.482 42.112C62.2767 41.6453 61.9873 41.272 61.614 40.992C61.2593 40.6933 60.83 40.544 60.326 40.544C59.8967 40.544 59.4953 40.7027 59.122 41.02C58.7487 41.3187 58.4033 41.6267 58.086 41.944C58.086 42.3173 58.086 42.672 58.086 43.008C58.086 43.344 58.1047 43.6987 58.142 44.072ZM67.2059 46.144C66.7579 45.92 66.4686 45.5933 66.3379 45.164C66.2259 44.7347 66.2259 44.2587 66.3379 43.736C66.4499 43.2133 66.6552 42.6813 66.9539 42.14C67.2526 41.58 67.5979 41.076 67.9899 40.628C68.3819 40.1613 68.7926 39.788 69.2219 39.508C69.6699 39.2093 70.0992 39.06 70.5099 39.06C70.6966 39.06 70.9019 39.1067 71.1259 39.2C71.5552 39.4053 71.8726 39.7227 72.0779 40.152C72.3019 40.5813 72.4606 41.048 72.5539 41.552C72.6472 42.056 72.6939 42.5693 72.6939 43.092C72.7126 43.6147 72.7312 44.072 72.7499 44.464C72.8059 45.1547 72.8526 45.864 72.8899 46.592C72.9459 47.32 72.9832 48.0107 73.0019 48.664C73.0392 49.3173 73.0579 49.9147 73.0579 50.456C73.0766 50.9973 73.0859 51.4267 73.0859 51.744C73.0859 52.4347 73.0766 53.3027 73.0579 54.348C73.0579 55.3933 73.0486 56.532 73.0299 57.764C73.0299 59.0147 73.0299 60.3213 73.0299 61.684C73.0486 63.0467 73.0672 64.3907 73.0859 65.716C73.1046 67.0413 73.1326 68.3013 73.1699 69.496C73.2259 70.6907 73.3006 71.736 73.3939 72.632C73.4872 73.5467 73.5992 74.2653 73.7299 74.788C73.8606 75.3293 74.0192 75.6 74.2059 75.6C74.5419 75.5813 74.8032 75.3387 74.9899 74.872C75.1952 74.4053 75.3446 73.808 75.4379 73.08C75.5499 72.352 75.6246 71.5307 75.6619 70.616C75.6992 69.7013 75.7179 68.7867 75.7179 67.872C75.7179 66.9573 75.7086 66.08 75.6899 65.24C75.6899 64.4187 75.6992 63.728 75.7179 63.168C75.6992 62.44 75.6712 61.4227 75.6339 60.116C75.5966 58.828 75.5592 57.3533 75.5219 55.692C75.4846 54.0493 75.4379 52.2667 75.3819 50.344C75.3259 48.44 75.2699 46.5173 75.2139 44.576C75.1766 42.616 75.1299 40.6933 75.0739 38.808C75.0366 36.9227 74.9992 35.1773 74.9619 33.572C74.9246 31.948 74.8872 30.5293 74.8499 29.316C74.8312 28.1027 74.8219 27.188 74.8219 26.572C74.7659 25.788 74.7286 24.9387 74.7099 24.024C74.6912 23.0907 74.6726 22.2133 74.6539 21.392C74.6539 20.552 74.6446 19.8427 74.6259 19.264C74.6072 18.6667 74.5792 18.3307 74.5419 18.256C74.2806 17.752 74.1406 17.276 74.1219 16.828C74.1219 16.3613 74.1779 15.9507 74.2899 15.596C74.4019 15.2413 74.5326 14.9707 74.6819 14.784C74.8499 14.5787 74.9712 14.4853 75.0459 14.504C75.1392 14.5227 75.2046 14.616 75.2419 14.784C75.2792 14.952 75.3072 15.1387 75.3259 15.344C75.3632 15.5493 75.3912 15.7547 75.4099 15.96C75.4286 16.1467 75.4566 16.2773 75.4939 16.352C75.9232 17.808 76.4179 18.984 76.9779 19.88C77.5379 20.7573 78.1259 21.4853 78.7419 22.064C79.3579 22.6427 79.9832 23.128 80.6179 23.52C81.2526 23.912 81.8499 24.3413 82.4099 24.808C82.9886 25.256 83.5112 25.8067 83.9779 26.46C84.4446 27.1133 84.8272 27.9813 85.1259 29.064C85.2006 29.3067 85.2566 29.708 85.2939 30.268C85.3499 30.8093 85.3872 31.4253 85.4059 32.116C85.4246 32.788 85.4339 33.4973 85.4339 34.244C85.4526 34.972 85.4619 35.6533 85.4619 36.288C85.4619 36.904 85.4619 37.4267 85.4619 37.856C85.4806 38.2853 85.4992 38.528 85.5179 38.584C85.5366 38.9013 85.7232 39.228 86.0779 39.564C86.4512 39.8813 86.8526 40.2453 87.2819 40.656C87.7112 41.0667 88.0939 41.5333 88.4299 42.056C88.7846 42.56 88.9526 43.1573 88.9339 43.848C88.8966 44.3893 88.8312 44.8747 88.7379 45.304C88.6446 45.7333 88.4672 46.144 88.2059 46.536C87.6646 47.376 87.0579 48.0013 86.3859 48.412C85.7326 48.804 85.0512 49 84.3419 49C83.2592 49 82.2139 48.552 81.2059 47.656C80.6272 47.1147 80.2259 46.48 80.0019 45.752C79.7966 45.0053 79.7406 44.268 79.8339 43.54C79.9272 42.812 80.1606 42.1493 80.5339 41.552C80.9259 40.9547 81.4112 40.5253 81.9899 40.264C82.4192 40.0773 82.7646 39.8907 83.0259 39.704C83.2872 39.4987 83.4832 39.312 83.6139 39.144C83.7632 38.976 83.8566 38.8173 83.8939 38.668C83.9499 38.5187 83.9872 38.3973 84.0059 38.304V38.136C83.9686 37.576 83.9779 36.876 84.0339 36.036C84.1086 35.1773 84.1366 34.2813 84.1179 33.348C84.1179 32.4147 84.0339 31.5 83.8659 30.604C83.7166 29.6893 83.4086 28.896 82.9419 28.224C82.5872 27.72 82.2139 27.3 81.8219 26.964C81.4486 26.628 81.0566 26.3107 80.6459 26.012C80.2352 25.6947 79.8152 25.3773 79.3859 25.06C78.9566 24.7427 78.5272 24.3507 78.0979 23.884C77.6686 23.4173 77.2299 22.848 76.7819 22.176C76.3526 21.504 75.9232 20.664 75.4939 19.656C75.4566 19.9547 75.4472 20.44 75.4659 21.112C75.4846 21.784 75.5126 22.5213 75.5499 23.324C75.5872 24.108 75.6152 24.9013 75.6339 25.704C75.6526 26.5067 75.6432 27.1787 75.6059 27.72C75.6059 28.224 75.6152 28.9707 75.6339 29.96C75.6712 30.9493 75.7086 32.116 75.7459 33.46C75.7832 34.804 75.8206 36.288 75.8579 37.912C75.9139 39.536 75.9699 41.2253 76.0259 42.98C76.0819 44.7347 76.1286 46.5267 76.1659 48.356C76.2219 50.1853 76.2686 51.968 76.3059 53.704C76.3432 55.44 76.3712 57.1013 76.3899 58.688C76.4272 60.2747 76.4459 61.712 76.4459 63C76.4646 64.9227 76.4926 66.7427 76.5299 68.46C76.5672 70.1773 76.5206 71.68 76.3899 72.968C76.2779 74.256 76.0446 75.2827 75.6899 76.048C75.3352 76.8133 74.7846 77.2053 74.0379 77.224C73.5339 77.2613 73.1326 76.9907 72.8339 76.412C72.5539 75.852 72.3392 75.0867 72.1899 74.116C72.0406 73.1453 71.9472 72.016 71.9099 70.728C71.8726 69.4587 71.8632 68.1333 71.8819 66.752C71.9006 65.3707 71.9192 63.98 71.9379 62.58C71.9752 61.1987 71.9846 59.92 71.9659 58.744C71.9472 57.5493 71.9192 56.2987 71.8819 54.992C71.8632 53.6853 71.8352 52.388 71.7979 51.1C71.7606 49.8307 71.7139 48.608 71.6579 47.432C71.6019 46.256 71.5272 45.2013 71.4339 44.268C71.3592 43.3347 71.2566 42.5507 71.1259 41.916C71.0139 41.2813 70.8832 40.88 70.7339 40.712C70.6219 40.6 70.4912 40.544 70.3419 40.544C70.0619 40.544 69.7539 40.684 69.4179 40.964C69.1006 41.244 68.8019 41.58 68.5219 41.972C68.2606 42.3453 68.0459 42.728 67.8779 43.12C67.7099 43.4933 67.6539 43.792 67.7099 44.016C67.7659 44.1467 67.8592 44.2587 67.9899 44.352C68.1392 44.4267 68.2886 44.5013 68.4379 44.576C68.5872 44.6507 68.7272 44.7253 68.8579 44.8C69.0072 44.8747 69.1099 44.968 69.1659 45.08C69.2406 45.248 69.2406 45.4067 69.1659 45.556C69.0912 45.6867 68.9699 45.808 68.8019 45.92C68.6526 46.032 68.4752 46.116 68.2699 46.172C68.0832 46.228 67.8966 46.256 67.7099 46.256C67.4672 46.256 67.2992 46.2187 67.2059 46.144ZM81.2059 43.848C81.2246 44.3147 81.3272 44.772 81.5139 45.22C81.7006 45.668 81.9432 46.0693 82.2419 46.424C82.5406 46.7787 82.8672 47.0587 83.2219 47.264C83.5952 47.4507 83.9686 47.5253 84.3419 47.488C84.9206 47.4693 85.4432 47.3013 85.9099 46.984C86.3766 46.648 86.7499 46.2467 87.0299 45.78C87.3099 45.2947 87.4686 44.772 87.5059 44.212C87.5432 43.652 87.4219 43.12 87.1419 42.616C86.9366 42.28 86.7126 41.9907 86.4699 41.748C86.2459 41.4867 86.0219 41.2533 85.7979 41.048C85.5739 40.8427 85.3592 40.6373 85.1539 40.432C84.9486 40.2267 84.7712 40.0027 84.6219 39.76C84.4726 40.04 84.2019 40.2827 83.8099 40.488C83.4366 40.6933 83.0539 40.9267 82.6619 41.188C82.2699 41.4493 81.9246 41.7853 81.6259 42.196C81.3272 42.6067 81.1872 43.1573 81.2059 43.848ZM94.1933 47.152C94.4546 47.1147 94.5946 47.18 94.6133 47.348C94.632 47.516 94.576 47.712 94.4453 47.936C94.3146 48.16 94.128 48.3653 93.8853 48.552C93.6426 48.7387 93.3813 48.832 93.1013 48.832C92.896 48.832 92.6906 48.776 92.4853 48.664C92.2986 48.552 92.1213 48.3467 91.9533 48.048C91.748 47.7493 91.5613 47.376 91.3933 46.928C91.2253 46.4613 91.0946 45.9573 91.0013 45.416C90.9266 44.8747 90.908 44.324 90.9453 43.764C91.0013 43.1853 91.1506 42.6347 91.3933 42.112C91.8413 41.1413 92.42 40.4227 93.1293 39.956C93.8386 39.4893 94.5666 39.256 95.3133 39.256C95.8733 39.256 96.4333 39.3867 96.9933 39.648C97.516 39.9093 97.9546 40.2547 98.3093 40.684C98.664 41.0947 98.944 41.5613 99.1493 42.084C99.3546 42.6067 99.4853 43.1573 99.5413 43.736C99.5973 44.296 99.588 44.856 99.5133 45.416C99.476 45.8453 99.364 46.2653 99.1773 46.676C99.0093 47.0867 98.7946 47.4507 98.5333 47.768C98.272 48.0853 97.964 48.3467 97.6093 48.552C97.2733 48.7387 96.9186 48.832 96.5453 48.832C96.34 48.8133 96.228 48.7853 96.2093 48.748C96.1906 48.7107 96.2093 48.664 96.2653 48.608C96.34 48.5333 96.4426 48.4493 96.5733 48.356C96.704 48.244 96.8253 48.1227 96.9373 47.992C97.3106 47.5627 97.6093 47.0493 97.8333 46.452C98.0573 45.836 98.1693 45.2013 98.1693 44.548C98.188 43.8947 98.076 43.2507 97.8333 42.616C97.5906 41.9813 97.18 41.44 96.6013 40.992C96.1906 40.7307 95.7706 40.6 95.3413 40.6C94.632 40.6 93.932 40.9173 93.2413 41.552C92.9986 41.7947 92.7933 42.112 92.6253 42.504C92.476 42.8773 92.3733 43.2787 92.3173 43.708C92.2613 44.1373 92.252 44.576 92.2893 45.024C92.3266 45.4533 92.42 45.836 92.5693 46.172C92.7186 46.508 92.924 46.7693 93.1853 46.956C93.4653 47.1427 93.8013 47.208 94.1933 47.152Z" fill="#1C2135"/>
</svg>
