<svg width="129" height="99" viewBox="0 0 129 99" fill="none" xmlns="http://www.w3.org/2000/svg">
<path d="M11.52 56.024C11.376 56.648 11.4 57.212 11.592 57.716C11.784 58.196 12.06 58.604 12.42 58.94C12.804 59.276 13.248 59.528 13.752 59.696C14.256 59.864 14.76 59.948 15.264 59.948C15.888 59.948 16.452 59.816 16.956 59.552C17.484 59.264 17.832 58.832 18 58.256C18.216 57.608 18.264 57.056 18.144 56.6C18.048 56.144 17.844 55.748 17.532 55.412C17.244 55.052 16.872 54.74 16.416 54.476C15.984 54.212 15.54 53.948 15.084 53.684C14.628 53.396 14.196 53.096 13.788 52.784C13.404 52.448 13.104 52.064 12.888 51.632C12.696 51.296 12.588 50.96 12.564 50.624C12.564 50.288 12.6 49.952 12.672 49.616C12.768 49.232 12.912 48.86 13.104 48.5C13.296 48.116 13.5 47.78 13.716 47.492C13.956 47.204 14.208 46.976 14.472 46.808C14.76 46.64 15.048 46.568 15.336 46.592C15.672 46.616 15.888 46.7 15.984 46.844C16.08 46.964 16.104 47.12 16.056 47.312C16.008 47.504 15.9 47.708 15.732 47.924C15.588 48.116 15.432 48.296 15.264 48.464C14.976 48.68 14.688 48.944 14.4 49.256C14.112 49.544 14.04 49.928 14.184 50.408C14.232 50.624 14.34 50.804 14.508 50.948C14.676 51.092 14.868 51.212 15.084 51.308C15.3 51.404 15.504 51.488 15.696 51.56C15.912 51.632 16.08 51.704 16.2 51.776C16.656 52.016 17.076 52.28 17.46 52.568C17.868 52.832 18.216 53.156 18.504 53.54C18.816 53.9 19.056 54.344 19.224 54.872C19.392 55.376 19.464 55.976 19.44 56.672C19.488 57.512 19.38 58.28 19.116 58.976C18.852 59.648 18.408 60.272 17.784 60.848C17.4 61.232 16.932 61.52 16.38 61.712C15.852 61.88 15.3 61.964 14.724 61.964C13.788 61.964 12.888 61.76 12.024 61.352C12.024 61.952 12.024 62.54 12.024 63.116C12.024 63.692 12.024 64.328 12.024 65.024C12.024 65.72 12.012 66.488 11.988 67.328C11.988 68.192 11.988 69.2 11.988 70.352C12.012 71.528 12.024 72.872 12.024 74.384C12.048 75.92 12.072 77.696 12.096 79.712C12.12 82.208 12.156 84.572 12.204 86.804C12.252 89.036 12.192 90.992 12.024 92.672C11.88 94.376 11.58 95.732 11.124 96.74C10.668 97.748 9.96 98.264 9 98.288C8.376 98.336 7.872 98 7.488 97.28C7.104 96.56 6.804 95.576 6.588 94.328C6.396 93.104 6.264 91.676 6.192 90.044C6.144 88.436 6.12 86.744 6.12 84.968C6.144 83.216 6.168 81.452 6.192 79.676C6.24 77.924 6.264 76.28 6.264 74.744C6.264 74.12 6.264 73.364 6.264 72.476C6.288 71.612 6.288 70.688 6.264 69.704C6.24 68.72 6.192 67.712 6.12 66.68C6.072 65.672 5.976 64.724 5.832 63.836C5.712 62.948 5.532 62.156 5.292 61.46C5.076 60.764 4.8 60.248 4.464 59.912C4.296 59.744 4.116 59.66 3.924 59.66C3.732 59.66 3.54 59.732 3.348 59.876C3.18 60.02 3 60.176 2.808 60.344C2.64 60.512 2.472 60.668 2.304 60.812C2.136 60.956 1.968 61.028 1.8 61.028C1.68 61.028 1.56 60.968 1.44 60.848C1.416 60.824 1.38 60.74 1.332 60.596C1.284 60.428 1.272 60.224 1.296 59.984C1.344 59.744 1.44 59.492 1.584 59.228C1.728 58.964 1.992 58.712 2.376 58.472C2.928 58.136 3.396 57.62 3.78 56.924C4.164 56.204 4.404 55.46 4.5 54.692C4.62 53.924 4.56 53.192 4.32 52.496C4.104 51.8 3.672 51.296 3.024 50.984C2.496 50.888 2.076 50.912 1.764 51.056C1.452 51.2 1.2 51.296 1.008 51.344C0.96 51.2 0.948 51.008 0.972 50.768C1.02 50.504 1.104 50.264 1.224 50.048C1.344 49.808 1.524 49.604 1.764 49.436C2.004 49.268 2.316 49.184 2.7 49.184C3.132 49.184 3.624 49.304 4.176 49.544C4.92 49.952 5.412 50.504 5.652 51.2C5.916 51.896 6.036 52.628 6.012 53.396C5.988 54.164 5.892 54.932 5.724 55.7C5.556 56.444 5.424 57.08 5.328 57.608C5.28 57.776 5.28 57.92 5.328 58.04C5.376 58.136 5.448 58.244 5.544 58.364C5.664 58.46 5.808 58.604 5.976 58.796C6.168 58.964 6.384 59.216 6.624 59.552C6.96 59.984 7.212 60.608 7.38 61.424C7.548 62.24 7.668 63.176 7.74 64.232C7.812 65.288 7.836 66.416 7.812 67.616C7.812 68.84 7.8 70.064 7.776 71.288C7.728 72.896 7.692 74.624 7.668 76.472C7.668 78.32 7.68 80.168 7.704 82.016C7.752 83.864 7.8 85.64 7.848 87.344C7.92 89.048 8.016 90.56 8.136 91.88C8.256 93.2 8.4 94.244 8.568 95.012C8.736 95.804 8.928 96.2 9.144 96.2C9.6 96.176 9.96 95.864 10.224 95.264C10.488 94.664 10.692 93.884 10.836 92.924C10.98 91.964 11.064 90.884 11.088 89.684C11.136 88.508 11.16 87.32 11.16 86.12C11.16 84.92 11.148 83.78 11.124 82.7C11.124 81.62 11.136 80.72 11.16 80C11.16 78.344 11.148 76.652 11.124 74.924C11.124 73.22 11.112 71.528 11.088 69.848C11.064 68.192 11.04 66.584 11.016 65.024C11.016 63.488 11.016 62.048 11.016 60.704C10.584 60.344 10.296 59.912 10.152 59.408C10.008 59.048 9.912 58.64 9.864 58.184C9.84 57.728 9.876 57.296 9.972 56.888C10.092 56.456 10.272 56.084 10.512 55.772C10.776 55.46 11.136 55.28 11.592 55.232C11.712 55.208 11.772 55.232 11.772 55.304C11.796 55.376 11.784 55.46 11.736 55.556C11.712 55.652 11.676 55.748 11.628 55.844C11.58 55.94 11.544 56 11.52 56.024ZM51.7807 3.392C51.7087 3.464 51.7567 3.428 51.9247 3.284C52.0927 3.14 52.3327 2.948 52.6447 2.708C52.9567 2.468 53.3167 2.192 53.7247 1.88C54.1567 1.568 54.5767 1.28 54.9847 1.016C55.3927 0.751997 55.7767 0.535997 56.1367 0.367995C56.4967 0.175998 56.7727 0.079999 56.9647 0.079999C57.1567 0.079999 57.2527 0.151998 57.2527 0.295996C57.3487 1.856 57.0727 3.572 56.4247 5.444C55.8007 7.292 54.8287 9.284 53.5087 11.42C52.2127 13.532 50.6047 15.764 48.6847 18.116C46.7647 20.468 44.5567 22.928 42.0607 25.496C40.5967 26.984 39.0967 28.448 37.5607 29.888C36.0247 31.328 34.5247 32.804 33.0607 34.316C31.5967 35.828 30.2167 37.412 28.9207 39.068C27.6487 40.724 26.5327 42.512 25.5727 44.432C25.1887 45.176 24.8527 46.016 24.5647 46.952C24.3007 47.888 24.0847 48.776 23.9167 49.616C23.7727 50.456 23.6527 51.176 23.5567 51.776C23.4847 52.376 23.4367 52.712 23.4127 52.784C24.1087 51.632 24.8647 50.78 25.6807 50.228C26.4967 49.676 27.3127 49.4 28.1287 49.4C28.6807 49.4 29.1967 49.52 29.6767 49.76C30.2287 49.976 30.6487 50.264 30.9367 50.624C31.2247 50.96 31.5487 51.368 31.9087 51.848C32.3887 51.248 32.9407 50.696 33.5647 50.192C34.2127 49.688 34.9447 49.436 35.7607 49.436C36.4327 49.436 37.0687 49.64 37.6687 50.048C38.5807 50.696 39.2407 51.56 39.6487 52.64C40.0807 53.72 40.1647 55.088 39.9007 56.744C39.7807 57.488 39.5527 58.136 39.2167 58.688C38.8807 59.24 38.4967 59.72 38.0647 60.128C37.6327 60.512 37.1767 60.836 36.6967 61.1C36.2167 61.34 35.7727 61.544 35.3647 61.712C35.0047 61.856 34.7407 61.928 34.5727 61.928C34.1407 61.928 34.3087 61.592 35.0767 60.92C35.2207 60.824 35.5087 60.596 35.9407 60.236C36.3727 59.852 36.7807 59.336 37.1647 58.688C37.5727 58.016 37.8607 57.212 38.0287 56.276C38.2207 55.34 38.1247 54.272 37.7407 53.072C37.5247 52.376 37.2007 51.884 36.7687 51.596C36.3367 51.308 35.8807 51.164 35.4007 51.164C35.0407 51.164 34.6807 51.236 34.3207 51.38C33.9847 51.5 33.6727 51.68 33.3847 51.92C33.1207 52.16 32.9047 52.424 32.7367 52.712C32.5927 53 32.5327 53.312 32.5567 53.648C32.7007 54.656 32.6047 55.424 32.2687 55.952C31.9327 56.456 31.5487 56.6 31.1167 56.384C30.8287 56.24 30.6007 56.012 30.4327 55.7C30.2647 55.388 30.2767 54.8 30.4687 53.936C30.4927 53.696 30.4567 53.42 30.3607 53.108C30.2647 52.796 30.1327 52.496 29.9647 52.208C29.7967 51.92 29.5927 51.668 29.3527 51.452C29.1367 51.236 28.9087 51.104 28.6687 51.056C28.2847 50.96 27.8527 50.996 27.3727 51.164C26.9167 51.308 26.4847 51.548 26.0767 51.884C25.6927 52.196 25.3687 52.568 25.1047 53C24.8647 53.432 24.7567 53.888 24.7807 54.368C24.8047 54.896 24.9007 55.376 25.0687 55.808C25.2607 56.24 25.4647 56.648 25.6807 57.032C25.8967 57.416 26.1007 57.776 26.2927 58.112C26.4847 58.448 26.6047 58.784 26.6527 59.12C26.8447 59.888 26.8447 60.596 26.6527 61.244C26.4847 61.892 26.0047 62.456 25.2127 62.936C25.0447 63.032 24.8767 63.08 24.7087 63.08C24.4687 63.08 24.3127 62.996 24.2407 62.828C24.1927 62.66 24.3007 62.528 24.5647 62.432C24.8527 62.264 25.0327 62.036 25.1047 61.748C25.1767 61.436 25.1767 61.1 25.1047 60.74C25.0327 60.38 24.9007 60.008 24.7087 59.624C24.5167 59.216 24.3007 58.832 24.0607 58.472C23.1967 57.32 22.5967 56.156 22.2607 54.98C21.9487 53.78 21.8167 52.592 21.8647 51.416C21.9127 50.216 22.1167 49.028 22.4767 47.852C22.8607 46.676 23.3167 45.512 23.8447 44.36C24.4687 43.016 25.3687 41.576 26.5447 40.04C27.7207 38.504 29.0527 36.92 30.5407 35.288C32.0527 33.632 33.6607 31.94 35.3647 30.212C37.0927 28.484 38.8087 26.744 40.5127 24.992C42.2407 23.24 43.9087 21.5 45.5167 19.772C47.1247 18.044 48.5647 16.352 49.8367 14.696C51.1087 13.04 52.1647 11.444 53.0047 9.908C53.8687 8.348 54.3967 6.872 54.5887 5.48C54.6367 5.12 54.6727 4.796 54.6967 4.508C54.7207 4.196 54.7087 3.92 54.6607 3.68C54.6367 3.44 54.5527 3.26 54.4087 3.14C54.2647 2.996 54.0367 2.924 53.7247 2.924C53.2927 2.924 52.6447 3.08 51.7807 3.392ZM44.3675 51.848C45.0635 51.176 45.9035 50.588 46.8875 50.084C47.8715 49.556 48.8435 49.292 49.8035 49.292C50.4515 49.292 51.0515 49.448 51.6035 49.76C52.1555 50.072 52.6235 50.6 53.0075 51.344C53.2475 51.824 53.3675 52.424 53.3675 53.144C53.3675 53.84 53.2715 54.584 53.0795 55.376C52.9115 56.168 52.6595 56.96 52.3235 57.752C51.9875 58.52 51.5915 59.216 51.1355 59.84C50.6795 60.464 50.1755 60.98 49.6235 61.388C49.0955 61.772 48.5315 61.964 47.9315 61.964C47.5235 61.964 47.1035 61.856 46.6715 61.64C46.0955 61.352 45.6035 60.944 45.1955 60.416C44.7875 59.888 44.4395 59.324 44.1515 58.724C43.8875 58.1 43.6715 57.488 43.5035 56.888C43.3595 56.264 43.2395 55.736 43.1435 55.304C42.7835 53.6 42.7115 51.86 42.9275 50.084C43.1675 48.284 43.6595 46.604 44.4035 45.044C45.1475 43.484 46.1195 42.128 47.3195 40.976C48.5195 39.8 49.9115 38.984 51.4955 38.528C52.4795 38.216 53.4395 38.024 54.3755 37.952C55.3355 37.88 56.2595 37.844 57.1475 37.844C58.1555 37.844 59.0915 37.856 59.9555 37.88C60.8435 37.88 61.6715 37.784 62.4395 37.592C63.5915 37.304 64.4795 36.956 65.1035 36.548C65.7515 36.14 66.2075 35.576 66.4715 34.856C66.5915 34.52 66.6395 34.196 66.6155 33.884C66.6155 33.548 66.5915 33.272 66.5435 33.056C66.5195 32.816 66.5075 32.66 66.5075 32.588C66.5315 32.516 66.6395 32.576 66.8315 32.768C67.0955 33.032 67.2635 33.368 67.3355 33.776C67.4075 34.184 67.4075 34.604 67.3355 35.036C67.2635 35.468 67.1315 35.888 66.9395 36.296C66.7475 36.704 66.5195 37.04 66.2555 37.304C65.6075 37.928 64.8635 38.42 64.0235 38.78C63.2075 39.116 62.3435 39.38 61.4315 39.572C60.5195 39.764 59.5835 39.896 58.6235 39.968C57.6875 40.016 56.7635 40.064 55.8515 40.112C54.9635 40.16 54.1235 40.22 53.3315 40.292C52.5635 40.364 51.8795 40.496 51.2795 40.688C50.1995 41.072 49.2395 41.648 48.3995 42.416C47.5595 43.184 46.8395 44.072 46.2395 45.08C45.6635 46.088 45.2195 47.18 44.9075 48.356C44.5955 49.508 44.4155 50.672 44.3675 51.848ZM46.5995 59.192C47.0315 59.696 47.5115 59.948 48.0395 59.948C48.3995 59.948 48.7355 59.84 49.0475 59.624C49.3835 59.384 49.6835 59.096 49.9475 58.76C50.2355 58.424 50.4875 58.064 50.7035 57.68C50.9195 57.296 51.0875 56.96 51.2075 56.672C51.3755 56.288 51.5075 55.892 51.6035 55.484C51.6995 55.076 51.7475 54.68 51.7475 54.296C51.7715 53.912 51.7355 53.552 51.6395 53.216C51.5435 52.88 51.3755 52.592 51.1355 52.352C50.7275 51.968 50.3075 51.704 49.8755 51.56C49.4435 51.392 48.9995 51.308 48.5435 51.308C47.7035 51.308 46.9115 51.512 46.1675 51.92C45.4235 52.328 44.8235 52.808 44.3675 53.36C44.4395 54.512 44.6555 55.592 45.0155 56.6C45.3755 57.608 45.9035 58.472 46.5995 59.192ZM81.378 42.632C81.354 42.896 81.246 43.064 81.054 43.136C80.862 43.208 80.634 43.28 80.37 43.352C80.106 43.424 79.842 43.544 79.578 43.712C79.314 43.856 79.098 44.144 78.93 44.576C78.762 45.032 78.702 45.476 78.75 45.908C78.798 46.34 78.918 46.772 79.11 47.204C79.302 47.612 79.554 48.044 79.866 48.5C80.202 48.932 80.562 49.4 80.946 49.904C81.498 50.384 81.93 51.104 82.242 52.064C82.578 53 82.722 54.296 82.674 55.952C82.674 56.864 82.506 57.692 82.17 58.436C81.858 59.156 81.354 59.912 80.658 60.704C80.106 61.16 79.53 61.52 78.93 61.784C78.33 62.048 77.73 62.18 77.13 62.18C76.41 62.18 75.726 61.964 75.078 61.532C74.43 61.1 73.866 60.392 73.386 59.408C73.098 58.808 72.906 58.208 72.81 57.608C72.714 57.008 72.678 56.36 72.702 55.664C72.726 54.968 72.774 54.2 72.846 53.36C72.918 52.52 72.978 51.56 73.026 50.48C73.122 48.656 73.242 46.712 73.386 44.648C73.53 42.584 73.662 40.58 73.782 38.636C73.926 36.668 74.046 34.856 74.142 33.2C74.262 31.52 74.346 30.176 74.394 29.168C74.466 27.872 74.514 26.636 74.538 25.46C74.586 24.284 74.634 23.12 74.682 21.968C73.914 22.616 73.158 23.144 72.414 23.552C71.67 23.96 70.938 24.272 70.218 24.488C69.114 25.184 68.238 26.036 67.59 27.044C66.942 28.028 66.462 29.132 66.15 30.356C65.838 31.556 65.67 32.852 65.646 34.244C65.622 35.612 65.67 37.028 65.79 38.492C65.91 39.956 66.078 41.444 66.294 42.956C66.51 44.444 66.714 45.92 66.906 47.384C67.098 48.824 67.23 50.228 67.302 51.596C67.398 52.964 67.386 54.248 67.266 55.448C67.338 56.048 67.338 56.696 67.266 57.392C67.218 57.944 67.074 58.484 66.834 59.012C66.618 59.54 66.342 60.008 66.006 60.416C65.67 60.824 65.274 61.16 64.818 61.424C64.386 61.664 63.93 61.784 63.45 61.784C63.186 61.76 63.042 61.724 63.018 61.676C62.994 61.628 63.018 61.568 63.09 61.496C63.186 61.4 63.318 61.292 63.486 61.172C63.654 61.028 63.81 60.872 63.954 60.704C64.434 60.152 64.818 59.492 65.106 58.724C65.394 57.932 65.538 57.116 65.538 56.276C65.562 55.436 65.418 54.608 65.106 53.792C64.794 52.976 64.266 52.28 63.522 51.704C62.994 51.368 62.454 51.2 61.902 51.2C60.99 51.2 60.09 51.608 59.202 52.424C58.89 52.736 58.626 53.144 58.41 53.648C58.218 54.128 58.086 54.644 58.014 55.196C57.942 55.748 57.93 56.312 57.978 56.888C58.026 57.44 58.146 57.932 58.338 58.364C58.53 58.796 58.794 59.132 59.13 59.372C59.49 59.612 59.922 59.696 60.426 59.624C60.762 59.576 60.942 59.66 60.966 59.876C60.99 60.092 60.918 60.344 60.75 60.632C60.582 60.92 60.342 61.184 60.03 61.424C59.718 61.664 59.382 61.784 59.022 61.784C58.758 61.784 58.494 61.712 58.23 61.568C57.99 61.424 57.762 61.16 57.546 60.776C57.282 60.392 57.042 59.912 56.826 59.336C56.61 58.736 56.442 58.088 56.322 57.392C56.226 56.696 56.202 55.988 56.25 55.268C56.322 54.524 56.514 53.816 56.826 53.144C57.402 51.896 58.146 50.972 59.058 50.372C59.97 49.772 60.906 49.472 61.866 49.472C62.682 49.472 63.414 49.652 64.062 50.012C64.734 50.372 65.322 50.864 65.826 51.488C65.682 50.096 65.478 48.572 65.214 46.916C64.974 45.26 64.746 43.58 64.53 41.876C64.338 40.148 64.206 38.432 64.134 36.728C64.062 35.024 64.134 33.428 64.35 31.94C64.566 30.428 64.962 29.06 65.538 27.836C66.114 26.612 66.954 25.616 68.058 24.848C66.858 24.896 65.73 24.704 64.674 24.272C63.618 23.84 62.646 23.252 61.758 22.508C60.894 21.74 60.138 20.852 59.49 19.844C58.842 18.836 58.326 17.78 57.942 16.676C57.582 15.572 57.366 14.468 57.294 13.364C57.246 12.26 57.378 11.216 57.69 10.232C58.554 7.496 59.958 5.432 61.902 4.04C63.87 2.624 66.258 1.784 69.066 1.52C70.506 1.424 71.706 1.7 72.666 2.348C73.65 2.972 74.442 3.932 75.042 5.228C75.642 6.524 76.062 8.132 76.302 10.052C76.566 11.972 76.698 14.168 76.698 16.64C76.698 19.472 76.602 22.352 76.41 25.28C76.242 28.184 76.05 31.088 75.834 33.992C75.618 36.896 75.402 39.776 75.186 42.632C74.97 45.464 74.826 48.224 74.754 50.912C75.258 50.48 75.834 50.108 76.482 49.796C77.13 49.46 77.778 49.256 78.426 49.184C78.09 48.68 77.814 48.08 77.598 47.384C77.382 46.688 77.298 45.992 77.346 45.296C77.37 44.696 77.49 44.168 77.706 43.712C77.922 43.232 78.186 42.824 78.498 42.488C78.81 42.152 79.134 41.9 79.47 41.732C79.83 41.54 80.154 41.444 80.442 41.444C80.73 41.444 80.97 41.54 81.162 41.732C81.354 41.924 81.426 42.224 81.378 42.632ZM64.53 4.256C63.666 4.688 62.898 5.24 62.226 5.912C61.554 6.56 60.99 7.28 60.534 8.072C60.078 8.864 59.73 9.692 59.49 10.556C59.25 11.396 59.13 12.224 59.13 13.04C59.13 14.552 59.394 15.956 59.922 17.252C60.474 18.524 61.194 19.64 62.082 20.6C62.97 21.536 63.966 22.268 65.07 22.796C66.174 23.324 67.302 23.588 68.454 23.588C69.654 23.588 70.806 23.276 71.91 22.652C73.014 22.004 73.962 20.96 74.754 19.52C74.754 17 74.658 14.732 74.466 12.716C74.274 10.7 73.938 8.984 73.458 7.568C73.002 6.128 72.378 5.024 71.586 4.256C70.818 3.488 69.834 3.104 68.634 3.104C67.434 3.104 66.066 3.488 64.53 4.256ZM74.754 55.664C74.754 56.888 74.994 57.896 75.474 58.688C75.954 59.456 76.638 59.84 77.526 59.84C77.838 59.84 78.138 59.792 78.426 59.696C79.026 59.528 79.518 59.204 79.902 58.724C80.286 58.22 80.55 57.656 80.694 57.032C80.862 56.384 80.91 55.724 80.838 55.052C80.79 54.356 80.622 53.72 80.334 53.144C80.07 52.544 79.698 52.064 79.218 51.704C78.762 51.32 78.21 51.128 77.562 51.128C77.01 51.128 76.494 51.332 76.014 51.74C75.534 52.124 75.09 52.52 74.682 52.928C74.682 53.408 74.682 53.864 74.682 54.296C74.682 54.728 74.706 55.184 74.754 55.664ZM86.4076 58.328C85.8316 58.04 85.4596 57.62 85.2916 57.068C85.1476 56.516 85.1476 55.904 85.2916 55.232C85.4356 54.56 85.6996 53.876 86.0836 53.18C86.4676 52.46 86.9116 51.812 87.4156 51.236C87.9196 50.636 88.4476 50.156 88.9996 49.796C89.5756 49.412 90.1276 49.22 90.6556 49.22C90.8956 49.22 91.1596 49.28 91.4476 49.4C91.9996 49.664 92.4076 50.072 92.6716 50.624C92.9596 51.176 93.1636 51.776 93.2836 52.424C93.4036 53.072 93.4636 53.732 93.4636 54.404C93.4876 55.076 93.5116 55.664 93.5356 56.168C93.6076 57.056 93.6676 57.968 93.7156 58.904C93.7876 59.84 93.8356 60.728 93.8596 61.568C93.9076 62.408 93.9316 63.176 93.9316 63.872C93.9556 64.568 93.9676 65.12 93.9676 65.528C93.9676 66.416 93.9556 67.532 93.9316 68.876C93.9316 70.22 93.9196 71.684 93.8956 73.268C93.8956 74.876 93.8956 76.556 93.8956 78.308C93.9196 80.06 93.9436 81.788 93.9676 83.492C93.9916 85.196 94.0276 86.816 94.0756 88.352C94.1476 89.888 94.2436 91.232 94.3636 92.384C94.4836 93.56 94.6276 94.484 94.7956 95.156C94.9636 95.852 95.1676 96.2 95.4076 96.2C95.8396 96.176 96.1756 95.864 96.4156 95.264C96.6796 94.664 96.8716 93.896 96.9916 92.96C97.1356 92.024 97.2316 90.968 97.2796 89.792C97.3276 88.616 97.3516 87.44 97.3516 86.264C97.3516 85.088 97.3396 83.96 97.3156 82.88C97.3156 81.824 97.3276 80.936 97.3516 80.216C97.3276 79.28 97.2916 77.972 97.2436 76.292C97.1956 74.636 97.1476 72.74 97.0996 70.604C97.0516 68.492 96.9916 66.2 96.9196 63.728C96.8476 61.28 96.7756 58.808 96.7036 56.312C96.6556 53.792 96.5956 51.32 96.5236 48.896C96.4756 46.472 96.4276 44.228 96.3796 42.164C96.3316 40.076 96.2836 38.252 96.2356 36.692C96.2116 35.132 96.1996 33.956 96.1996 33.164C96.1276 32.156 96.0796 31.064 96.0556 29.888C96.0316 28.688 96.0076 27.56 95.9836 26.504C95.9836 25.424 95.9716 24.512 95.9476 23.768C95.9236 23 95.8876 22.568 95.8396 22.472C95.5036 21.824 95.3236 21.212 95.2996 20.636C95.2996 20.036 95.3716 19.508 95.5156 19.052C95.6596 18.596 95.8276 18.248 96.0196 18.008C96.2356 17.744 96.3916 17.624 96.4876 17.648C96.6076 17.672 96.6916 17.792 96.7396 18.008C96.7876 18.224 96.8236 18.464 96.8476 18.728C96.8956 18.992 96.9316 19.256 96.9556 19.52C96.9796 19.76 97.0156 19.928 97.0636 20.024C97.6156 21.896 98.2516 23.408 98.9716 24.56C99.6916 25.688 100.448 26.624 101.24 27.368C102.032 28.112 102.836 28.736 103.652 29.24C104.468 29.744 105.236 30.296 105.956 30.896C106.7 31.472 107.372 32.18 107.972 33.02C108.572 33.86 109.064 34.976 109.448 36.368C109.544 36.68 109.616 37.196 109.664 37.916C109.736 38.612 109.784 39.404 109.808 40.292C109.832 41.156 109.844 42.068 109.844 43.028C109.868 43.964 109.88 44.84 109.88 45.656C109.88 46.448 109.88 47.12 109.88 47.672C109.904 48.224 109.928 48.536 109.952 48.608C109.976 49.016 110.216 49.436 110.672 49.868C111.152 50.276 111.668 50.744 112.22 51.272C112.772 51.8 113.264 52.4 113.696 53.072C114.152 53.72 114.368 54.488 114.344 55.376C114.296 56.072 114.212 56.696 114.092 57.248C113.972 57.8 113.744 58.328 113.408 58.832C112.712 59.912 111.932 60.716 111.068 61.244C110.228 61.748 109.352 62 108.44 62C107.048 62 105.704 61.424 104.408 60.272C103.664 59.576 103.148 58.76 102.86 57.824C102.596 56.864 102.524 55.916 102.644 54.98C102.764 54.044 103.064 53.192 103.544 52.424C104.048 51.656 104.672 51.104 105.416 50.768C105.968 50.528 106.412 50.288 106.748 50.048C107.084 49.784 107.336 49.544 107.504 49.328C107.696 49.112 107.816 48.908 107.864 48.716C107.936 48.524 107.984 48.368 108.008 48.248V48.032C107.96 47.312 107.972 46.412 108.044 45.332C108.14 44.228 108.176 43.076 108.152 41.876C108.152 40.676 108.044 39.5 107.828 38.348C107.636 37.172 107.24 36.152 106.64 35.288C106.184 34.64 105.704 34.1 105.2 33.668C104.72 33.236 104.216 32.828 103.688 32.444C103.16 32.036 102.62 31.628 102.068 31.22C101.516 30.812 100.964 30.308 100.412 29.708C99.8596 29.108 99.2956 28.376 98.7196 27.512C98.1676 26.648 97.6156 25.568 97.0636 24.272C97.0156 24.656 97.0036 25.28 97.0276 26.144C97.0516 27.008 97.0876 27.956 97.1356 28.988C97.1836 29.996 97.2196 31.016 97.2436 32.048C97.2676 33.08 97.2556 33.944 97.2076 34.64C97.2076 35.288 97.2196 36.248 97.2436 37.52C97.2916 38.792 97.3396 40.292 97.3876 42.02C97.4356 43.748 97.4836 45.656 97.5316 47.744C97.6036 49.832 97.6756 52.004 97.7476 54.26C97.8196 56.516 97.8796 58.82 97.9276 61.172C97.9996 63.524 98.0596 65.816 98.1076 68.048C98.1556 70.28 98.1916 72.416 98.2156 74.456C98.2636 76.496 98.2876 78.344 98.2876 80C98.3116 82.472 98.3476 84.812 98.3956 87.02C98.4436 89.228 98.3836 91.16 98.2156 92.816C98.0716 94.472 97.7716 95.792 97.3156 96.776C96.8596 97.76 96.1516 98.264 95.1916 98.288C94.5436 98.336 94.0276 97.988 93.6436 97.244C93.2836 96.524 93.0076 95.54 92.8156 94.292C92.6236 93.044 92.5036 91.592 92.4556 89.936C92.4076 88.304 92.3956 86.6 92.4196 84.824C92.4436 83.048 92.4676 81.26 92.4916 79.46C92.5396 77.684 92.5516 76.04 92.5276 74.528C92.5036 72.992 92.4676 71.384 92.4196 69.704C92.3956 68.024 92.3596 66.356 92.3116 64.7C92.2636 63.068 92.2036 61.496 92.1316 59.984C92.0596 58.472 91.9636 57.116 91.8436 55.916C91.7476 54.716 91.6156 53.708 91.4476 52.892C91.3036 52.076 91.1356 51.56 90.9436 51.344C90.7996 51.2 90.6316 51.128 90.4396 51.128C90.0796 51.128 89.6836 51.308 89.2516 51.668C88.8436 52.028 88.4596 52.46 88.0996 52.964C87.7636 53.444 87.4876 53.936 87.2716 54.44C87.0556 54.92 86.9836 55.304 87.0556 55.592C87.1276 55.76 87.2476 55.904 87.4156 56.024C87.6076 56.12 87.7996 56.216 87.9916 56.312C88.1836 56.408 88.3636 56.504 88.5316 56.6C88.7236 56.696 88.8556 56.816 88.9276 56.96C89.0236 57.176 89.0236 57.38 88.9276 57.572C88.8316 57.74 88.6756 57.896 88.4596 58.04C88.2676 58.184 88.0396 58.292 87.7756 58.364C87.5356 58.436 87.2956 58.472 87.0556 58.472C86.7436 58.472 86.5276 58.424 86.4076 58.328ZM104.408 55.376C104.432 55.976 104.564 56.564 104.804 57.14C105.044 57.716 105.356 58.232 105.74 58.688C106.124 59.144 106.544 59.504 107 59.768C107.48 60.008 107.96 60.104 108.44 60.056C109.184 60.032 109.856 59.816 110.456 59.408C111.056 58.976 111.536 58.46 111.896 57.86C112.256 57.236 112.46 56.564 112.508 55.844C112.556 55.124 112.4 54.44 112.04 53.792C111.776 53.36 111.488 52.988 111.176 52.676C110.888 52.34 110.6 52.04 110.312 51.776C110.024 51.512 109.748 51.248 109.484 50.984C109.22 50.72 108.992 50.432 108.8 50.12C108.608 50.48 108.26 50.792 107.756 51.056C107.276 51.32 106.784 51.62 106.28 51.956C105.776 52.292 105.332 52.724 104.948 53.252C104.564 53.78 104.384 54.488 104.408 55.376ZM121.106 59.624C121.442 59.576 121.622 59.66 121.646 59.876C121.67 60.092 121.598 60.344 121.43 60.632C121.262 60.92 121.022 61.184 120.71 61.424C120.398 61.664 120.062 61.784 119.702 61.784C119.438 61.784 119.174 61.712 118.91 61.568C118.67 61.424 118.442 61.16 118.226 60.776C117.962 60.392 117.722 59.912 117.506 59.336C117.29 58.736 117.122 58.088 117.002 57.392C116.906 56.696 116.882 55.988 116.93 55.268C117.002 54.524 117.194 53.816 117.506 53.144C118.082 51.896 118.826 50.972 119.738 50.372C120.65 49.772 121.586 49.472 122.546 49.472C123.266 49.472 123.986 49.64 124.706 49.976C125.378 50.312 125.942 50.756 126.398 51.308C126.854 51.836 127.214 52.436 127.478 53.108C127.742 53.78 127.91 54.488 127.982 55.232C128.054 55.952 128.042 56.672 127.946 57.392C127.898 57.944 127.754 58.484 127.514 59.012C127.298 59.54 127.022 60.008 126.686 60.416C126.35 60.824 125.954 61.16 125.498 61.424C125.066 61.664 124.61 61.784 124.13 61.784C123.866 61.76 123.722 61.724 123.698 61.676C123.674 61.628 123.698 61.568 123.77 61.496C123.866 61.4 123.998 61.292 124.166 61.172C124.334 61.028 124.49 60.872 124.634 60.704C125.114 60.152 125.498 59.492 125.786 58.724C126.074 57.932 126.218 57.116 126.218 56.276C126.242 55.436 126.098 54.608 125.786 53.792C125.474 52.976 124.946 52.28 124.202 51.704C123.674 51.368 123.134 51.2 122.582 51.2C121.67 51.2 120.77 51.608 119.882 52.424C119.57 52.736 119.306 53.144 119.09 53.648C118.898 54.128 118.766 54.644 118.694 55.196C118.622 55.748 118.61 56.312 118.658 56.888C118.706 57.44 118.826 57.932 119.018 58.364C119.21 58.796 119.474 59.132 119.81 59.372C120.17 59.612 120.602 59.696 121.106 59.624Z" fill="white"/>
</svg>
