<svg width="21" height="20" viewBox="0 0 21 20" fill="none" xmlns="http://www.w3.org/2000/svg">
<path fill-rule="evenodd" clip-rule="evenodd" d="M6.14677 0.205828C6.69564 -0.0686093 7.34169 -0.0686092 7.89057 0.205828L13.0831 2.80209C13.1929 2.85698 13.3221 2.85698 13.4319 2.80209L17.4546 0.790717C18.7509 0.142561 20.2761 1.0852 20.2761 2.53452V15.5159C20.2761 16.2543 19.8589 16.9294 19.1984 17.2597L14.1294 19.7942C13.5805 20.0686 12.9345 20.0686 12.3856 19.7942L7.19305 17.1979C7.08327 17.143 6.95406 17.143 6.84429 17.1979L2.82153 19.2093C1.52522 19.8574 0 18.9148 0 17.4655V4.48415C0 3.74568 0.417225 3.0706 1.07773 2.74035L6.14677 0.205828ZM7.01867 3.76118C7.44937 3.76118 7.79852 4.11033 7.79852 4.54103V13.1194C7.79852 13.5501 7.44937 13.8993 7.01867 13.8993C6.58797 13.8993 6.23881 13.5501 6.23881 13.1194V4.54103C6.23881 4.11033 6.58797 3.76118 7.01867 3.76118ZM14.0373 6.88058C14.0373 6.44988 13.6882 6.10073 13.2575 6.10073C12.8268 6.10073 12.4776 6.44988 12.4776 6.88058V15.459C12.4776 15.8897 12.8268 16.2388 13.2575 16.2388C13.6882 16.2388 14.0373 15.8897 14.0373 15.459V6.88058Z" fill="white"/>
</svg>
