<svg width="17" height="20" viewBox="0 0 17 20" fill="none" xmlns="http://www.w3.org/2000/svg">
<path fill-rule="evenodd" clip-rule="evenodd" d="M7.69413 19.8543C7.72396 19.8716 7.74741 19.8849 7.76402 19.8943L7.7916 19.9097C8.01173 20.0305 8.2848 20.0296 8.50514 19.9101L8.53345 19.8943C8.55005 19.8849 8.5735 19.8716 8.60333 19.8543C8.663 19.8197 8.74825 19.7693 8.85545 19.7033C9.06975 19.5714 9.37228 19.3768 9.73364 19.1215C10.4552 18.6118 11.4179 17.8555 12.3827 16.8677C14.3029 14.9016 16.2975 11.9477 16.2975 8.14873C16.2975 3.64831 12.6491 0 8.14873 0C3.64831 0 0 3.64831 0 8.14873C0 11.9477 1.99454 14.9016 3.9148 16.8677C4.87961 17.8555 5.8423 18.6118 6.56382 19.1215C6.92519 19.3768 7.22771 19.5714 7.44201 19.7033C7.54921 19.7693 7.63446 19.8197 7.69413 19.8543ZM8.14873 11.1119C9.78525 11.1119 11.1119 9.78525 11.1119 8.14873C11.1119 6.51221 9.78525 5.18556 8.14873 5.18556C6.51221 5.18556 5.18556 6.51221 5.18556 8.14873C5.18556 9.78525 6.51221 11.1119 8.14873 11.1119Z" fill="white"/>
</svg>
