<svg width="20" height="20" viewBox="0 0 20 20" fill="none" xmlns="http://www.w3.org/2000/svg">
<path d="M10.7692 10.7692C10.7692 11.1941 10.4248 11.5385 10 11.5385C9.57517 11.5385 9.23077 11.1941 9.23077 10.7692C9.23077 10.3444 9.57517 10 10 10C10.4248 10 10.7692 10.3444 10.7692 10.7692Z" fill="white"/>
<path d="M5.38462 13.8462C5.80945 13.8462 6.15385 13.5018 6.15385 13.0769C6.15385 12.6521 5.80945 12.3077 5.38462 12.3077C4.95978 12.3077 4.61538 12.6521 4.61538 13.0769C4.61538 13.5018 4.95978 13.8462 5.38462 13.8462Z" fill="white"/>
<path d="M6.15385 15.3846C6.15385 15.8095 5.80945 16.1538 5.38462 16.1538C4.95978 16.1538 4.61538 15.8095 4.61538 15.3846C4.61538 14.9598 4.95978 14.6154 5.38462 14.6154C5.80945 14.6154 6.15385 14.9598 6.15385 15.3846Z" fill="white"/>
<path d="M7.69231 13.8462C8.11714 13.8462 8.46154 13.5018 8.46154 13.0769C8.46154 12.6521 8.11714 12.3077 7.69231 12.3077C7.26747 12.3077 6.92308 12.6521 6.92308 13.0769C6.92308 13.5018 7.26747 13.8462 7.69231 13.8462Z" fill="white"/>
<path d="M8.46154 15.3846C8.46154 15.8095 8.11714 16.1538 7.69231 16.1538C7.26747 16.1538 6.92308 15.8095 6.92308 15.3846C6.92308 14.9598 7.26747 14.6154 7.69231 14.6154C8.11714 14.6154 8.46154 14.9598 8.46154 15.3846Z" fill="white"/>
<path d="M10 13.8462C10.4248 13.8462 10.7692 13.5018 10.7692 13.0769C10.7692 12.6521 10.4248 12.3077 10 12.3077C9.57517 12.3077 9.23077 12.6521 9.23077 13.0769C9.23077 13.5018 9.57517 13.8462 10 13.8462Z" fill="white"/>
<path d="M10.7692 15.3846C10.7692 15.8095 10.4248 16.1538 10 16.1538C9.57517 16.1538 9.23077 15.8095 9.23077 15.3846C9.23077 14.9598 9.57517 14.6154 10 14.6154C10.4248 14.6154 10.7692 14.9598 10.7692 15.3846Z" fill="white"/>
<path d="M12.3077 13.8462C12.7325 13.8462 13.0769 13.5018 13.0769 13.0769C13.0769 12.6521 12.7325 12.3077 12.3077 12.3077C11.8829 12.3077 11.5385 12.6521 11.5385 13.0769C11.5385 13.5018 11.8829 13.8462 12.3077 13.8462Z" fill="white"/>
<path d="M13.0769 15.3846C13.0769 15.8095 12.7325 16.1538 12.3077 16.1538C11.8829 16.1538 11.5385 15.8095 11.5385 15.3846C11.5385 14.9598 11.8829 14.6154 12.3077 14.6154C12.7325 14.6154 13.0769 14.9598 13.0769 15.3846Z" fill="white"/>
<path d="M14.6154 13.8462C15.0402 13.8462 15.3846 13.5018 15.3846 13.0769C15.3846 12.6521 15.0402 12.3077 14.6154 12.3077C14.1906 12.3077 13.8462 12.6521 13.8462 13.0769C13.8462 13.5018 14.1906 13.8462 14.6154 13.8462Z" fill="white"/>
<path d="M13.0769 10.7692C13.0769 11.1941 12.7325 11.5385 12.3077 11.5385C11.8829 11.5385 11.5385 11.1941 11.5385 10.7692C11.5385 10.3444 11.8829 10 12.3077 10C12.7325 10 13.0769 10.3444 13.0769 10.7692Z" fill="white"/>
<path d="M14.6154 11.5385C15.0402 11.5385 15.3846 11.1941 15.3846 10.7692C15.3846 10.3444 15.0402 10 14.6154 10C14.1906 10 13.8462 10.3444 13.8462 10.7692C13.8462 11.1941 14.1906 11.5385 14.6154 11.5385Z" fill="white"/>
<path fill-rule="evenodd" clip-rule="evenodd" d="M4.61538 0C5.04022 0 5.38462 0.344396 5.38462 0.769231V2.30769H14.6154V0.769231C14.6154 0.344396 14.9598 0 15.3846 0C15.8095 0 16.1538 0.344396 16.1538 0.769231V2.30769H16.9231C18.6224 2.30769 20 3.68528 20 5.38462V16.9231C20 18.6224 18.6224 20 16.9231 20H3.07692C1.37759 20 0 18.6224 0 16.9231V5.38462C0 3.68528 1.37759 2.30769 3.07692 2.30769H3.84615V0.769231C3.84615 0.344396 4.19055 0 4.61538 0ZM18.4615 9.23077C18.4615 8.3811 17.7727 7.69231 16.9231 7.69231H3.07692C2.22725 7.69231 1.53846 8.3811 1.53846 9.23077V16.9231C1.53846 17.7727 2.22725 18.4615 3.07692 18.4615H16.9231C17.7727 18.4615 18.4615 17.7727 18.4615 16.9231V9.23077Z" fill="white"/>
</svg>
