<svg width="20" height="20" viewBox="0 0 20 20" fill="none" xmlns="http://www.w3.org/2000/svg">
<path fill-rule="evenodd" clip-rule="evenodd" d="M0 2.85714C0 1.27919 1.27919 0 2.85714 0H4.16345C4.98286 0 5.69712 0.557674 5.89585 1.35261L6.94899 5.56517C7.12324 6.26219 6.8628 6.99576 6.28802 7.42684L5.056 8.35086C4.92807 8.44681 4.90025 8.58731 4.93619 8.68541C6.01763 11.6376 8.3624 13.9824 11.3146 15.0638C11.4127 15.0997 11.5532 15.0719 11.6491 14.944L12.5732 13.712C13.0042 13.1372 13.7378 12.8768 14.4348 13.051L18.6474 14.1041C19.4423 14.3029 20 15.0171 20 15.8365V17.1429C20 18.7208 18.7208 20 17.1429 20H15C6.71573 20 0 13.2843 0 5V2.85714Z" fill="white"/>
</svg>
