<svg width="157" height="12" viewBox="0 0 157 12" fill="none" xmlns="http://www.w3.org/2000/svg">
<path d="M4.848 9.036C4.248 9.036 3.692 8.928 3.18 8.712C2.668 8.496 2.22 8.196 1.836 7.812C1.452 7.42 1.152 6.968 0.936 6.456C0.728 5.944 0.624 5.392 0.624 4.8C0.624 4.208 0.732 3.656 0.948 3.144C1.164 2.632 1.464 2.184 1.848 1.8C2.232 1.408 2.68 1.104 3.192 0.887999C3.712 0.672 4.272 0.564 4.872 0.564C5.472 0.564 6.028 0.672 6.54 0.887999C7.06 1.096 7.508 1.392 7.884 1.776C8.268 2.16 8.564 2.608 8.772 3.12C8.988 3.624 9.096 4.176 9.096 4.776C9.096 5.376 8.988 5.936 8.772 6.456C8.556 6.968 8.252 7.42 7.86 7.812C7.476 8.196 7.028 8.496 6.516 8.712C6.004 8.928 5.448 9.036 4.848 9.036ZM4.836 8.592C5.38 8.592 5.88 8.496 6.336 8.304C6.792 8.104 7.192 7.832 7.536 7.488C7.888 7.144 8.16 6.74 8.352 6.276C8.544 5.804 8.64 5.304 8.64 4.776C8.64 4.24 8.544 3.744 8.352 3.288C8.168 2.832 7.904 2.432 7.56 2.088C7.224 1.744 6.824 1.48 6.36 1.296C5.904 1.104 5.408 1.008 4.872 1.008C4.328 1.008 3.824 1.104 3.36 1.296C2.896 1.488 2.492 1.76 2.148 2.112C1.812 2.456 1.548 2.856 1.356 3.312C1.164 3.768 1.068 4.264 1.068 4.8C1.068 5.328 1.164 5.824 1.356 6.288C1.548 6.744 1.812 7.148 2.148 7.5C2.492 7.844 2.892 8.112 3.348 8.304C3.812 8.496 4.308 8.592 4.836 8.592ZM4.956 7.296C4.476 7.296 4.048 7.192 3.672 6.984C3.296 6.768 3 6.472 2.784 6.096C2.568 5.72 2.46 5.288 2.46 4.8C2.46 4.312 2.568 3.88 2.784 3.504C3 3.128 3.296 2.836 3.672 2.628C4.048 2.412 4.476 2.304 4.956 2.304C5.364 2.304 5.732 2.388 6.06 2.556C6.396 2.716 6.664 2.94 6.864 3.228L6.348 3.612C6.18 3.38 5.976 3.208 5.736 3.096C5.496 2.984 5.232 2.928 4.944 2.928C4.6 2.928 4.292 3.008 4.02 3.168C3.756 3.32 3.544 3.536 3.384 3.816C3.224 4.096 3.144 4.424 3.144 4.8C3.144 5.176 3.224 5.504 3.384 5.784C3.544 6.064 3.756 6.284 4.02 6.444C4.292 6.596 4.6 6.672 4.944 6.672C5.232 6.672 5.496 6.616 5.736 6.504C5.976 6.392 6.18 6.22 6.348 5.988L6.864 6.36C6.664 6.656 6.396 6.888 6.06 7.056C5.732 7.216 5.364 7.296 4.956 7.296ZM16.4524 9V8.388L19.9444 4.968C20.2644 4.656 20.5044 4.384 20.6644 4.152C20.8244 3.912 20.9324 3.688 20.9884 3.48C21.0444 3.272 21.0724 3.076 21.0724 2.892C21.0724 2.404 20.9044 2.02 20.5684 1.74C20.2404 1.46 19.7524 1.32 19.1044 1.32C18.6084 1.32 18.1684 1.396 17.7844 1.548C17.4084 1.7 17.0844 1.936 16.8124 2.256L16.2004 1.728C16.5284 1.344 16.9484 1.048 17.4604 0.84C17.9724 0.632 18.5444 0.528 19.1764 0.528C19.7444 0.528 20.2364 0.62 20.6524 0.804C21.0684 0.98 21.3884 1.24 21.6124 1.584C21.8444 1.928 21.9604 2.332 21.9604 2.796C21.9604 3.068 21.9204 3.336 21.8404 3.6C21.7684 3.864 21.6324 4.144 21.4324 4.44C21.2404 4.728 20.9564 5.056 20.5804 5.424L17.3764 8.568L17.1364 8.232H22.3444V9H16.4524ZM26.7533 9.072C26.1053 9.072 25.5293 8.904 25.0253 8.568C24.5213 8.224 24.1253 7.736 23.8373 7.104C23.5493 6.464 23.4053 5.696 23.4053 4.8C23.4053 3.904 23.5493 3.14 23.8373 2.508C24.1253 1.868 24.5213 1.38 25.0253 1.044C25.5293 0.7 26.1053 0.528 26.7533 0.528C27.4013 0.528 27.9773 0.7 28.4813 1.044C28.9853 1.38 29.3813 1.868 29.6693 2.508C29.9653 3.14 30.1133 3.904 30.1133 4.8C30.1133 5.696 29.9653 6.464 29.6693 7.104C29.3813 7.736 28.9853 8.224 28.4813 8.568C27.9773 8.904 27.4013 9.072 26.7533 9.072ZM26.7533 8.28C27.2493 8.28 27.6813 8.148 28.0493 7.884C28.4173 7.612 28.7053 7.22 28.9133 6.708C29.1213 6.188 29.2253 5.552 29.2253 4.8C29.2253 4.048 29.1213 3.416 28.9133 2.904C28.7053 2.384 28.4173 1.992 28.0493 1.728C27.6813 1.456 27.2493 1.32 26.7533 1.32C26.2733 1.32 25.8453 1.456 25.4693 1.728C25.0933 1.992 24.8013 2.384 24.5933 2.904C24.3853 3.416 24.2812 4.048 24.2812 4.8C24.2812 5.552 24.3853 6.188 24.5933 6.708C24.8013 7.22 25.0933 7.612 25.4693 7.884C25.8453 8.148 26.2733 8.28 26.7533 8.28ZM31.1946 9V8.388L34.6866 4.968C35.0066 4.656 35.2466 4.384 35.4066 4.152C35.5666 3.912 35.6746 3.688 35.7306 3.48C35.7866 3.272 35.8146 3.076 35.8146 2.892C35.8146 2.404 35.6466 2.02 35.3106 1.74C34.9826 1.46 34.4946 1.32 33.8466 1.32C33.3506 1.32 32.9106 1.396 32.5266 1.548C32.1506 1.7 31.8266 1.936 31.5546 2.256L30.9426 1.728C31.2706 1.344 31.6906 1.048 32.2026 0.84C32.7146 0.632 33.2866 0.528 33.9186 0.528C34.4866 0.528 34.9786 0.62 35.3946 0.804C35.8106 0.98 36.1306 1.24 36.3546 1.584C36.5866 1.928 36.7026 2.332 36.7026 2.796C36.7026 3.068 36.6626 3.336 36.5826 3.6C36.5106 3.864 36.3746 4.144 36.1746 4.44C35.9826 4.728 35.6986 5.056 35.3226 5.424L32.1186 8.568L31.8786 8.232H37.0866V9H31.1946ZM40.6789 9.072C40.0709 9.072 39.4949 8.976 38.9509 8.784C38.4149 8.584 37.9829 8.32 37.6549 7.992L38.0749 7.308C38.3469 7.588 38.7109 7.82 39.1669 8.004C39.6309 8.188 40.1349 8.28 40.6789 8.28C41.3749 8.28 41.9069 8.128 42.2749 7.824C42.6509 7.52 42.8389 7.112 42.8389 6.6C42.8389 6.088 42.6549 5.68 42.2869 5.376C41.9269 5.072 41.3549 4.92 40.5709 4.92H39.9709V4.284L42.5629 1.032L42.6829 1.368H38.0029V0.599999H43.4029V1.212L40.8109 4.464L40.3909 4.188H40.7149C41.7229 4.188 42.4749 4.412 42.9709 4.86C43.4749 5.308 43.7269 5.884 43.7269 6.588C43.7269 7.06 43.6149 7.484 43.3909 7.86C43.1669 8.236 42.8269 8.532 42.3709 8.748C41.9229 8.964 41.3589 9.072 40.6789 9.072ZM45.5923 9.06C45.4163 9.06 45.2643 8.996 45.1363 8.868C45.0163 8.74 44.9563 8.584 44.9563 8.4C44.9563 8.208 45.0163 8.052 45.1363 7.932C45.2643 7.812 45.4163 7.752 45.5923 7.752C45.7683 7.752 45.9163 7.812 46.0363 7.932C46.1643 8.052 46.2283 8.208 46.2283 8.4C46.2283 8.584 46.1643 8.74 46.0363 8.868C45.9163 8.996 45.7683 9.06 45.5923 9.06ZM50.0279 9L53.8679 0.599999H54.7439L58.5839 9H57.6479L54.1199 1.116H54.4799L50.9519 9H50.0279ZM51.5399 6.756L51.8039 6.036H56.6879L56.9519 6.756H51.5399ZM59.7935 9V0.0959995H60.6455V9H59.7935ZM63.0161 9V0.0959995H63.8681V9H63.0161ZM69.3794 9V2.7H70.1954V4.416L70.1114 4.116C70.2874 3.636 70.5834 3.272 70.9994 3.024C71.4154 2.768 71.9314 2.64 72.5474 2.64V3.468C72.5154 3.468 72.4834 3.468 72.4514 3.468C72.4194 3.46 72.3874 3.456 72.3554 3.456C71.6914 3.456 71.1714 3.66 70.7954 4.068C70.4194 4.468 70.2314 5.04 70.2314 5.784V9H69.3794ZM74.1021 9V2.7H74.9541V9H74.1021ZM74.5341 1.308C74.3581 1.308 74.2101 1.248 74.0901 1.128C73.9701 1.008 73.9101 0.864 73.9101 0.696C73.9101 0.527999 73.9701 0.387999 74.0901 0.275999C74.2101 0.155999 74.3581 0.0959995 74.5341 0.0959995C74.7101 0.0959995 74.8581 0.151999 74.9781 0.263999C75.0981 0.375999 75.1581 0.516 75.1581 0.684C75.1581 0.86 75.0981 1.008 74.9781 1.128C74.8661 1.248 74.7181 1.308 74.5341 1.308ZM80.0127 11.388C79.4367 11.388 78.8847 11.304 78.3567 11.136C77.8287 10.968 77.4007 10.728 77.0727 10.416L77.5047 9.768C77.8007 10.032 78.1647 10.24 78.5967 10.392C79.0367 10.552 79.5007 10.632 79.9887 10.632C80.7887 10.632 81.3767 10.444 81.7527 10.068C82.1287 9.7 82.3167 9.124 82.3167 8.34V6.768L82.4367 5.688L82.3527 4.608V2.7H83.1687V8.232C83.1687 9.32 82.9007 10.116 82.3647 10.62C81.8367 11.132 81.0527 11.388 80.0127 11.388ZM79.8567 8.76C79.2567 8.76 78.7167 8.632 78.2367 8.376C77.7567 8.112 77.3767 7.748 77.0967 7.284C76.8247 6.82 76.6887 6.288 76.6887 5.688C76.6887 5.088 76.8247 4.56 77.0967 4.104C77.3767 3.64 77.7567 3.28 78.2367 3.024C78.7167 2.768 79.2567 2.64 79.8567 2.64C80.4167 2.64 80.9207 2.756 81.3687 2.988C81.8167 3.22 82.1727 3.564 82.4367 4.02C82.7007 4.476 82.8327 5.032 82.8327 5.688C82.8327 6.344 82.7007 6.9 82.4367 7.356C82.1727 7.812 81.8167 8.16 81.3687 8.4C80.9207 8.64 80.4167 8.76 79.8567 8.76ZM79.9407 8.004C80.4047 8.004 80.8167 7.908 81.1767 7.716C81.5367 7.516 81.8207 7.244 82.0287 6.9C82.2367 6.548 82.3407 6.144 82.3407 5.688C82.3407 5.232 82.2367 4.832 82.0287 4.488C81.8207 4.144 81.5367 3.876 81.1767 3.684C80.8167 3.484 80.4047 3.384 79.9407 3.384C79.4847 3.384 79.0727 3.484 78.7047 3.684C78.3447 3.876 78.0607 4.144 77.8527 4.488C77.6527 4.832 77.5527 5.232 77.5527 5.688C77.5527 6.144 77.6527 6.548 77.8527 6.9C78.0607 7.244 78.3447 7.516 78.7047 7.716C79.0727 7.908 79.4847 8.004 79.9407 8.004ZM88.7556 2.64C89.2676 2.64 89.7156 2.74 90.0996 2.94C90.4916 3.132 90.7956 3.428 91.0116 3.828C91.2356 4.228 91.3476 4.732 91.3476 5.34V9H90.4956V5.424C90.4956 4.76 90.3276 4.26 89.9916 3.924C89.6636 3.58 89.1996 3.408 88.5996 3.408C88.1516 3.408 87.7596 3.5 87.4236 3.684C87.0956 3.86 86.8396 4.12 86.6556 4.464C86.4796 4.8 86.3916 5.208 86.3916 5.688V9H85.5396V0.0959995H86.3916V4.428L86.2236 4.104C86.4236 3.648 86.7436 3.292 87.1836 3.036C87.6236 2.772 88.1476 2.64 88.7556 2.64ZM95.6409 9.06C95.0489 9.06 94.5929 8.9 94.2729 8.58C93.9529 8.26 93.7929 7.808 93.7929 7.224V1.308H94.6449V7.176C94.6449 7.544 94.7369 7.828 94.9209 8.028C95.1129 8.228 95.3849 8.328 95.7369 8.328C96.1129 8.328 96.4249 8.22 96.6729 8.004L96.9729 8.616C96.8049 8.768 96.6009 8.88 96.3609 8.952C96.1289 9.024 95.8889 9.06 95.6409 9.06ZM92.6649 3.408V2.7H96.5649V3.408H92.6649ZM100.216 9.06C99.6959 9.06 99.2039 8.988 98.7399 8.844C98.2759 8.692 97.9119 8.504 97.6479 8.28L98.0319 7.608C98.2879 7.8 98.6159 7.968 99.0159 8.112C99.4159 8.248 99.8359 8.316 100.276 8.316C100.876 8.316 101.308 8.224 101.572 8.04C101.836 7.848 101.968 7.596 101.968 7.284C101.968 7.052 101.892 6.872 101.74 6.744C101.596 6.608 101.404 6.508 101.164 6.444C100.924 6.372 100.656 6.312 100.36 6.264C100.064 6.216 99.7679 6.16 99.4719 6.096C99.1839 6.032 98.9199 5.94 98.6799 5.82C98.4399 5.692 98.2439 5.52 98.0919 5.304C97.9479 5.088 97.8759 4.8 97.8759 4.44C97.8759 4.096 97.9719 3.788 98.1639 3.516C98.3559 3.244 98.6359 3.032 99.0039 2.88C99.3799 2.72 99.8359 2.64 100.372 2.64C100.78 2.64 101.188 2.696 101.596 2.808C102.004 2.912 102.34 3.052 102.604 3.228L102.232 3.912C101.952 3.72 101.652 3.584 101.332 3.504C101.012 3.416 100.692 3.372 100.372 3.372C99.8039 3.372 99.3839 3.472 99.1119 3.672C98.8479 3.864 98.7159 4.112 98.7159 4.416C98.7159 4.656 98.7879 4.844 98.9319 4.98C99.0839 5.116 99.2799 5.224 99.5199 5.304C99.7679 5.376 100.036 5.436 100.324 5.484C100.62 5.532 100.912 5.592 101.2 5.664C101.496 5.728 101.764 5.82 102.004 5.94C102.252 6.052 102.448 6.216 102.592 6.432C102.744 6.64 102.82 6.916 102.82 7.26C102.82 7.628 102.716 7.948 102.508 8.22C102.308 8.484 102.012 8.692 101.62 8.844C101.236 8.988 100.768 9.06 100.216 9.06ZM107.524 9V2.7H108.34V4.416L108.256 4.116C108.432 3.636 108.728 3.272 109.144 3.024C109.56 2.768 110.076 2.64 110.692 2.64V3.468C110.66 3.468 110.628 3.468 110.596 3.468C110.564 3.46 110.532 3.456 110.5 3.456C109.836 3.456 109.316 3.66 108.94 4.068C108.564 4.468 108.376 5.04 108.376 5.784V9H107.524ZM114.864 9.06C114.208 9.06 113.632 8.924 113.136 8.652C112.64 8.372 112.252 7.992 111.972 7.512C111.692 7.024 111.552 6.468 111.552 5.844C111.552 5.22 111.684 4.668 111.948 4.188C112.22 3.708 112.588 3.332 113.052 3.06C113.524 2.78 114.052 2.64 114.636 2.64C115.228 2.64 115.752 2.776 116.208 3.048C116.672 3.312 117.036 3.688 117.3 4.176C117.564 4.656 117.696 5.212 117.696 5.844C117.696 5.884 117.692 5.928 117.684 5.976C117.684 6.016 117.684 6.06 117.684 6.108H112.2V5.472H117.228L116.892 5.724C116.892 5.268 116.792 4.864 116.592 4.512C116.4 4.152 116.136 3.872 115.8 3.672C115.464 3.472 115.076 3.372 114.636 3.372C114.204 3.372 113.816 3.472 113.472 3.672C113.128 3.872 112.86 4.152 112.668 4.512C112.476 4.872 112.38 5.284 112.38 5.748V5.88C112.38 6.36 112.484 6.784 112.692 7.152C112.908 7.512 113.204 7.796 113.58 8.004C113.964 8.204 114.4 8.304 114.888 8.304C115.272 8.304 115.628 8.236 115.956 8.1C116.292 7.964 116.58 7.756 116.82 7.476L117.3 8.028C117.02 8.364 116.668 8.62 116.244 8.796C115.828 8.972 115.368 9.06 114.864 9.06ZM121.122 9.06C120.602 9.06 120.11 8.988 119.646 8.844C119.182 8.692 118.818 8.504 118.554 8.28L118.938 7.608C119.194 7.8 119.522 7.968 119.922 8.112C120.322 8.248 120.742 8.316 121.182 8.316C121.782 8.316 122.214 8.224 122.478 8.04C122.742 7.848 122.874 7.596 122.874 7.284C122.874 7.052 122.798 6.872 122.646 6.744C122.502 6.608 122.31 6.508 122.07 6.444C121.83 6.372 121.562 6.312 121.266 6.264C120.97 6.216 120.674 6.16 120.378 6.096C120.09 6.032 119.826 5.94 119.586 5.82C119.346 5.692 119.15 5.52 118.998 5.304C118.854 5.088 118.782 4.8 118.782 4.44C118.782 4.096 118.878 3.788 119.07 3.516C119.262 3.244 119.542 3.032 119.91 2.88C120.286 2.72 120.742 2.64 121.278 2.64C121.686 2.64 122.094 2.696 122.502 2.808C122.91 2.912 123.246 3.052 123.51 3.228L123.138 3.912C122.858 3.72 122.558 3.584 122.238 3.504C121.918 3.416 121.598 3.372 121.278 3.372C120.71 3.372 120.29 3.472 120.018 3.672C119.754 3.864 119.622 4.112 119.622 4.416C119.622 4.656 119.694 4.844 119.838 4.98C119.99 5.116 120.186 5.224 120.426 5.304C120.674 5.376 120.942 5.436 121.23 5.484C121.526 5.532 121.818 5.592 122.106 5.664C122.402 5.728 122.67 5.82 122.91 5.94C123.158 6.052 123.354 6.216 123.498 6.432C123.65 6.64 123.726 6.916 123.726 7.26C123.726 7.628 123.622 7.948 123.414 8.22C123.214 8.484 122.918 8.692 122.526 8.844C122.142 8.988 121.674 9.06 121.122 9.06ZM127.966 9.06C127.31 9.06 126.734 8.924 126.238 8.652C125.742 8.372 125.354 7.992 125.074 7.512C124.794 7.024 124.654 6.468 124.654 5.844C124.654 5.22 124.786 4.668 125.05 4.188C125.322 3.708 125.69 3.332 126.154 3.06C126.626 2.78 127.154 2.64 127.738 2.64C128.33 2.64 128.854 2.776 129.31 3.048C129.774 3.312 130.138 3.688 130.402 4.176C130.666 4.656 130.798 5.212 130.798 5.844C130.798 5.884 130.794 5.928 130.786 5.976C130.786 6.016 130.786 6.06 130.786 6.108H125.302V5.472H130.33L129.994 5.724C129.994 5.268 129.894 4.864 129.694 4.512C129.502 4.152 129.238 3.872 128.902 3.672C128.566 3.472 128.178 3.372 127.738 3.372C127.306 3.372 126.918 3.472 126.574 3.672C126.23 3.872 125.962 4.152 125.77 4.512C125.578 4.872 125.482 5.284 125.482 5.748V5.88C125.482 6.36 125.586 6.784 125.794 7.152C126.01 7.512 126.306 7.796 126.682 8.004C127.066 8.204 127.502 8.304 127.99 8.304C128.374 8.304 128.73 8.236 129.058 8.1C129.394 7.964 129.682 7.756 129.922 7.476L130.402 8.028C130.122 8.364 129.77 8.62 129.346 8.796C128.93 8.972 128.47 9.06 127.966 9.06ZM132.532 9V2.7H133.348V4.416L133.264 4.116C133.44 3.636 133.736 3.272 134.152 3.024C134.568 2.768 135.084 2.64 135.7 2.64V3.468C135.668 3.468 135.636 3.468 135.604 3.468C135.572 3.46 135.54 3.456 135.508 3.456C134.844 3.456 134.324 3.66 133.948 4.068C133.572 4.468 133.384 5.04 133.384 5.784V9H132.532ZM139.144 9L136.348 2.7H137.236L139.804 8.544H139.384L141.988 2.7H142.828L140.02 9H139.144ZM146.528 9.06C145.872 9.06 145.296 8.924 144.8 8.652C144.304 8.372 143.916 7.992 143.636 7.512C143.356 7.024 143.216 6.468 143.216 5.844C143.216 5.22 143.348 4.668 143.612 4.188C143.884 3.708 144.252 3.332 144.716 3.06C145.188 2.78 145.716 2.64 146.3 2.64C146.892 2.64 147.416 2.776 147.872 3.048C148.336 3.312 148.7 3.688 148.964 4.176C149.228 4.656 149.36 5.212 149.36 5.844C149.36 5.884 149.356 5.928 149.348 5.976C149.348 6.016 149.348 6.06 149.348 6.108H143.864V5.472H148.892L148.556 5.724C148.556 5.268 148.456 4.864 148.256 4.512C148.064 4.152 147.8 3.872 147.464 3.672C147.128 3.472 146.74 3.372 146.3 3.372C145.868 3.372 145.48 3.472 145.136 3.672C144.792 3.872 144.524 4.152 144.332 4.512C144.14 4.872 144.044 5.284 144.044 5.748V5.88C144.044 6.36 144.148 6.784 144.356 7.152C144.572 7.512 144.868 7.796 145.244 8.004C145.628 8.204 146.064 8.304 146.552 8.304C146.936 8.304 147.292 8.236 147.62 8.1C147.956 7.964 148.244 7.756 148.484 7.476L148.964 8.028C148.684 8.364 148.332 8.62 147.908 8.796C147.492 8.972 147.032 9.06 146.528 9.06ZM153.602 9.06C153.002 9.06 152.462 8.924 151.982 8.652C151.51 8.38 151.138 8.004 150.866 7.524C150.594 7.036 150.458 6.476 150.458 5.844C150.458 5.204 150.594 4.644 150.866 4.164C151.138 3.684 151.51 3.312 151.982 3.048C152.462 2.776 153.002 2.64 153.602 2.64C154.154 2.64 154.646 2.764 155.078 3.012C155.518 3.26 155.866 3.624 156.122 4.104C156.386 4.576 156.518 5.156 156.518 5.844C156.518 6.524 156.39 7.104 156.134 7.584C155.878 8.064 155.53 8.432 155.09 8.688C154.658 8.936 154.162 9.06 153.602 9.06ZM153.662 8.304C154.11 8.304 154.51 8.204 154.862 8.004C155.222 7.796 155.502 7.508 155.702 7.14C155.91 6.764 156.014 6.332 156.014 5.844C156.014 5.348 155.91 4.916 155.702 4.548C155.502 4.18 155.222 3.896 154.862 3.696C154.51 3.488 154.11 3.384 153.662 3.384C153.222 3.384 152.826 3.488 152.474 3.696C152.122 3.896 151.842 4.18 151.634 4.548C151.426 4.916 151.322 5.348 151.322 5.844C151.322 6.332 151.426 6.764 151.634 7.14C151.842 7.508 152.122 7.796 152.474 8.004C152.826 8.204 153.222 8.304 153.662 8.304ZM156.038 9V7.104L156.122 5.832L156.002 4.56V0.0959995H156.854V9H156.038Z" fill="white"/>
</svg>
